<?xml version="1.0"?>
<svg xmlns:rdf="http://www.w3.org/1999/02/22-rdf-syntax-ns#" xmlns="http://www.w3.org/2000/svg" xmlns:cc="http://creativecommons.org/ns#" xmlns:xlink="http://www.w3.org/1999/xlink" xmlns:dc="http://purl.org/dc/elements/1.1/" xmlns:svg="http://www.w3.org/2000/svg" id="svg9008" viewBox="0 0 637.8 425.2" version="1.1">
  <defs id="defs9010">
    <linearGradient id="linearGradient9859">
      <stop id="stop9861" stop-color="#d600b3" offset="0"/>
      <stop id="stop9863" stop-color="#6cb3d1" offset="1"/>
    </linearGradient>
    <linearGradient id="linearGradient9865" y2="-130.21" xlink:href="#linearGradient9859" gradientUnits="userSpaceOnUse" x2="275.32" gradientTransform="translate(-106.3 -143.14)" y1="100.11" x1="239.89"/>
    <linearGradient id="linearGradient9873" y2="82.389" gradientUnits="userSpaceOnUse" x2="204.46" gradientTransform="translate(-106.3 -143.14)" y1="-6.1933" x1="293.04">
      <stop id="stop9869" stop-color="#b00067" offset="0"/>
      <stop id="stop9871" stop-color="#4300b0" offset="1"/>
    </linearGradient>
    <linearGradient id="linearGradient9881" y2="-148.52" gradientUnits="userSpaceOnUse" x2="289.36" gradientTransform="translate(-106.3 -143.14)" y1="-118.88" x1="65.092">
      <stop id="stop9877" stop-color="#ee65c3" offset="0"/>
      <stop id="stop9879" stop-color="#d6d7f7" offset="1"/>
    </linearGradient>
    <linearGradient id="linearGradient9889" y2="58.14" gradientUnits="userSpaceOnUse" x2="320.03" gradientTransform="translate(-106.3 -143.14)" y1="27.8" x1="416.24">
      <stop id="stop9885" stop-color="#54d2ff" offset="0"/>
      <stop id="stop9887" stop-color="#25389f" stop-opacity=".51299" offset="1"/>
    </linearGradient>
    <linearGradient id="linearGradient9905" y2="-230.25" gradientUnits="userSpaceOnUse" x2="222.99" gradientTransform="translate(-106.3 -143.14)" y1="-148.52" x1="108.76">
      <stop id="stop9901" stop-color="#52305e" offset="0"/>
      <stop id="stop9903" stop-color="#2b23ab" offset="1"/>
    </linearGradient>
    <linearGradient id="linearGradient17544" y2="212.6" xlink:href="#linearGradient9859" gradientUnits="userSpaceOnUse" x2="407.48" gradientTransform="translate(-106.3 -143.14)" y1="425.2" x1="407.48"/>
    <linearGradient id="linearGradient3298" y2="264.34" gradientUnits="userSpaceOnUse" x2="212.6" y1="-54.558" x1="212.6">
      <stop id="stop16859-5" stop-color="#2f7bcc" offset="0"/>
      <stop id="stop16861-5" stop-color="#791912" stop-opacity=".65584" offset="1"/>
    </linearGradient>
    <linearGradient id="linearGradient3956" y2="98.267" gradientUnits="userSpaceOnUse" x2="210.81" y1="177.67" x1="53.818">
      <stop id="stop3952" stop-color="#ffb9ff" offset="0"/>
      <stop id="stop3954" stop-color="#fff" offset="1"/>
    </linearGradient>
  </defs>
  <g id="layer9" transform="translate(106.3 143.14)">
    <rect id="rect17536" style="color:#000000" fill-rule="evenodd" height="425.2" width="637.8" y="-143.14" x="-106.3" fill="url(#linearGradient17544)"/>
    <g id="g3282" fill="url(#linearGradient3298)">
      <path id="path16839" d="m177.17-143.14h70.866l-35.433 354.33-35.433-354.33z"/>
      <path id="path16839-4" d="m318.9-143.14h70.866l-177.17 354.33 106.3-354.33z"/>
      <path id="path16839-1" d="m460.63-143.14h70.866v35.433l-318.9 318.9 248.03-354.33z"/>
      <path id="path16839-19" d="m35.433-143.14h70.866l106.3 354.33-177.17-354.33z"/>
      <path id="path16839-6" d="m-106.3-107.71v-35.433h70.866l248.03 354.33-318.9-318.9z"/>
      <path id="path16839-0" d="m-106.3 34.024v-70.866l318.9 248.03-318.9-177.17z"/>
      <path id="path16839-7" d="m-106.3 158.04v-53.15l318.9 106.3-318.9-53.15z"/>
      <path id="path16839-7-6" d="m531.5 158.04 0.00001-53.15-318.9 106.3 318.9-53.15z"/>
      <path id="path16839-0-7" d="m531.5 34.024v-70.866l-318.9 248.03 318.9-177.17z"/>
      <path id="path16839-8" d="m159.45 282.06h106.3l-53.15-70.866-53.15 70.866z"/>
      <path id="path16839-4-3" d="m336.61 282.06h106.3l-230.31-70.866 124.02 70.866z"/>
      <path id="path16839-19-5" d="m-17.717 282.06h106.3l124.02-70.866-230.31 70.866z"/>
      <path id="path16839-0-6" d="m-106.3 211.19v53.15l318.9-53.15h-318.9z"/>
      <path id="path16839-0-7-3" d="m531.5 211.19 0.00001 53.15-318.9-53.15h318.9z"/>
    </g>
  </g>
  <g id="layer10" transform="translate(106.3 143.14)">
    <path id="path17550" d="m65.193 106.09 50.02-22.231 15.039-17.981 17.327-3.2693 5.2308 7.1924h4.577v-7.5193l27.462-1.3077 8.1732 0.32693 5.5578 5.8847 25.827 15.366 147.44-1.9616 12.75 9.4809 11.769 25.5-33.43 34.745-132.66 24.006s-17.717-23.188-35.851 3.3272c-29.037 0.38521-138.33-6.2527-138.33-6.2527l-25.561-6.79s-4.6283-3.9534-5.2257-6.73c-0.46344-2.1541 1.5481-6.4263 1.5481-6.4263l7.5814-1.2284s-5.3504-5.2553-5.1191-8.5766c0.25037-3.5942 6.7729-8.4236 6.7729-8.4236s-4.0643-9.4645-3.5962-14.385c0.3186-3.349 4.25-9.154 4.25-9.154l8.5001-2.9423 19.943-0.65386z" fill="url(#linearGradient3956)"/>
  </g>
  <g id="layer6" transform="translate(114.44 397.37)">
    <path id="path9044-6" d="m170.44-71.943c-32.134-1.6491-80.431 14.38-143.33-5.6397l-3.2796-11.864 12.88 0.0177c7.0839 0.01 21.719 0.3713 32.522 0.80346 10.803 0.43214 36.394 1.3958 56.87 2.1415 43.157 1.5717 39.73 1.9939 39.73-4.8946 0-6.4792 1.5345-6.0904-26.816-6.794-40.176-0.99713-106.55-3.1595-110.52-3.6003-3.0528-0.33948-3.703-0.62494-3.703-1.6258 0-0.83964 0.60921-1.3358 1.9756-1.6091 5.1657-1.0331 5.8247-10.336 0.89139-12.584-1.2707-0.57898-1.579-1.1948-1.579-3.154 0-1.339 0.25448-2.5919 0.5655-2.7841 2.9042 0.75593 4.2858 2.0118 7.1325 0.55016 7.7328-4.3909 4.6043-17.281 1.4528-21.583-1.7866-0.68469-2.7003-1.1291-2.576-1.7626 0.24885-1.2679 4.4072-2.6646 9.3326-3.1346l3.9935-0.38109 1.6776-3.4289c3.1933-6.5269 20.307-13.727 32.97-17.568 7.5508-2.2906 17.989-3.9385 21.11-3.9385 0.86337 0 1.8653-0.36225 2.2266-0.805 0.36126-0.44274 5.5574-8.1948 11.547-17.227 17.349-26.161 21.708-31.258 31.79-37.173 2.216-1.2999 3.0522-2.1913 3.059-3.2608 0.007-1.1373 0.69892-1.7675 3.0434-2.7724 9.9845-4.2799 30.343-7.7863 51.886-8.9364 14.71-0.78536 62.581 0.24113 70.981 1.522 7.9814 1.2171 23.006 3.3913 31.786 4.5998 8.8778 1.222 12.324 2.4485 12.338 4.3918 0.009 1.199 1.1231 1.7393 8.5329 4.1373 5.9069 1.9117 10.796 4.0466 15.929 6.9556 14.548 8.2452 19.341 15.009 32.384 45.704 5.8328 13.726 6.124 14.636 5.3853 16.821 2.4185 7.1585 8.0246 13.481 10.763 20.909 0.2601 1.1041 1.5206 2.4191 3.5946 3.7499 1.8678 1.1986 4.1366 3.4697 5.4642 5.4699 7.7284 8.2639 8.1286 19.549 9.1456 30.436-25.177 14.437-7.157 5.6416-13.037 29.838-5.8799 24.196-37.089-18.625-38.484-8.8831-9.1812-23.912-30.496 15.357-51.228 14.111-20.732-1.2454-45.289 3.2086-99.657 24.551-26.855 10.542-38.758-31.304-38.758-31.304zm-17.81-32.257c5.2871-5.2871-0.087-13.6-7.0618-10.924-1.5419 0.59169-3.7373 5.2731-3.2965 7.0294 0.2051 0.81721 1.1233 2.3776 2.0403 3.4674 2.1827 2.594 5.9573 2.7878 8.318 0.42709zm-9.5848-17.708c2.5289-1.542 6.0397-8.487 6.0397-11.947 0-3.4136-1.2278-7.1539-2.832-8.6277-0.74465-0.68408-3.9595-2.3926-6.1839-2.555-2.7914-0.20379-5.7827-0.64669-8.1435 2.0451-2.3986 2.8444-3.4495 5.6696-3.4421 9.254 0.01 4.9238 3.6122 11.34 7.0776 12.607 2.0691 0.75639 5.5659 0.39393 7.4842-0.77578zm244.91-2.398 2.0433-0.40866-1.4311-1.5233c-1.759-1.8724-3.1075-1.9259-4.9634-0.19694-2.3959 2.2321-0.5879 3.1167 4.3512 2.1289zm-157.09-2.0924c0-1.6552-7.9056-7.1589-10.283-7.1589-1.759 0-0.3341 2.0819 2.3943 3.4983 1.6824 0.8734 3.9284 2.1805 4.991 2.9046 2.1007 1.4316 2.898 1.6395 2.898 0.756zm-131.25-13.74c-1.0348-1.0348-21.373-1.6241-21.373-0.6193 0 0.81984 3.4001 1.1287 14.136 1.2841 6.2823 0.091 7.8487-0.0529 7.2368-0.66484zm70.336-5.663c0.42398-0.42398-0.91213-0.63999-3.9588-0.63999-4.3466 0-5.8717 0.5026-4.8183 1.588 0.62921 0.64829 7.974-0.14498 8.777-0.94796zm-59.946-0.47653c-0.88549-0.28358-28.385-2.4538-35.101-1.7715-8.3579 0.84915-12.674 0.0693-9.3724 0.95417 7.157 1.9181 46.38 1.4277 44.473 0.81731zm227.77-10.789c0-0.7728-0.96599-0.966-4.83-0.966-4.9944 0-6.6739 1.0174-2.415 1.4629 5.6902 0.59522 7.2449 0.48859 7.2449-0.49686zm34.776-3.0676c0-0.44747-2.1642-1.9128-4.8094-3.2564-3.9206-1.9914-6.509-2.7324-14.007-4.0102-11.119-1.8948-11.721-1.9226-11.182-0.51727 0.4758 1.2399 0.85036 1.2531-38.588-1.3562-23.769-1.5726-39.841-1.9537-43.792-1.0383-1.0626 0.24622 5.4578 0.66396 14.49 0.92831 27.549 0.80632 45.83 2.4055 63.434 5.5492 1.771 0.31625 7.1322 1.317 11.914 2.2238 4.7817 0.90685 10.723 1.7364 13.202 1.8436 2.4794 0.10711 5.5947 0.25151 6.923 0.32088 1.5828 0.0827 2.415-0.15422 2.415-0.68745zm-189.66-1.7583c29.278-5.8768 33.988-8.5468 10.608-5.2985-11.099 1.542-23.365 5.5849-22.504 6.9776 0.48612 0.78656 1.7832 0.50412 11.896-1.6791zm-51.842-24.116c3.3649-0.60588 6.7906-1.2351 7.6127-1.3983 1.9393-0.38494 1.4308-1.8918-0.59161-1.753-5.8153 0.39929-14.749 2.9598-14.749 4.2272 0 0.34891 0.36225 0.49743 0.805 0.33004 0.44274-0.16738 3.5581-0.80006 6.9229-1.4059zm178.29 0.2196c7.6707-0.53147 14.607-2.2729 13.74-3.1989-1.9322-2.0643-5.2685-26.064-6.1721-27.153-0.85403-1.029-5.4007-2.8753-20.814-1.4616-5.6173 0.51525-17.454 2.6916-18.034 3.1582 2.2783 11.814 3.5761 17.253 6.1448 26.202 2.5001 4.1905 1.4898 4.0919 25.135 2.4536zm-111.96-0.23445c0-0.16464-0.65205-0.64678-1.449-1.0714-1.3139-0.7001-1.3666-0.67219-0.56515 0.29934 0.82292 0.99757 2.0141 1.4542 2.0141 0.77209zm24.923-0.21169c1.1118-0.70676 4.8506-9.7623 4.4556-10.792-0.50883-1.326-5.477-2.4035-9.2838-2.0135-5.7247 0.58652-10.932 4.4694-12.069 8.9988-0.37132 1.4795-0.17329 1.8212 1.4062 2.4264 1.0111 0.38739 4.1568 0.93185 6.9903 1.2099 7.2553 0.71197 7.6363 0.71959 8.5008 0.17004zm-74.34-3.1919c-0.15634-1.6824 0.32089-7.3934 1.0605-12.691 0.73962-5.2976 1.3448-10.592 1.3448-11.765 0-1.9935-0.11594-2.1073-1.771-1.7382-3.7311 0.83216-6.9471 3.8906-13.176 12.53-3.439 4.7702-6.2645 9.0354-6.279 9.4781-0.0294 0.90106 1.2352 1.0616 8.6676 1.1002 5.1341 0.0267 5.1527 0.0329 5.3557 1.7978 0.11398 0.99054 0.60064 1.771 1.1043 1.771 0.49531 0 1.2108 0.57959 1.5899 1.288 1.3161 2.4591 2.4101 1.5376 2.1027-1.771zm209.28 0.61935c0.46605-1.3697 3.7734-3.7178 0.27171-11.089-3.8684-8.1433-8.0898-12.22-14.736-15.33-3.1524-1.4752-7.1376-3.4494-10.091-3.4922-3.7759-0.0546-5.4112 1.1542-5.5984 2.7674-0.24984 2.1525 3.7383 26.497 4.5162 27.634 1.2992 1.8984 5.5962 2.0992 14.236 1.7858 9.0132-0.32693 11.196-1.6715 11.401-2.2762zm-124.37-0.70458c1.3751-1.3751 2.5002-2.8139 2.5002-3.1973 0-1.2194-2.4498-2.1432-3.7865-1.4279-1.0931 0.58503-3.2974 4.9265-3.2974 6.4944 0 1.3972 2.2244 0.49009 4.5837-1.8692zm-62.221 0.38508c9.3552 0.0145 15.773-0.22978 16.26-0.61883 0.54339-0.43418 1.4508-0.37501 2.7965 0.18238 1.5301 0.63377 2.1019 0.6474 2.4657 0.0588 0.91685-1.4835 3.372-19.743 2.9139-21.671-0.5612-2.3622-2.5057-4.5864-4.4322-5.07-7.9547-1.9965-34.553-3.79-35.419-2.3883-0.83499 1.351-3.9944 24.606-3.3934 24.978 0.74714 0.46176 12.303-0.93344 15.436-1.8638 1.9125-0.56776 3.7476-0.49043 8.6939 0.3664 3.4484 0.59733 7.4289 1.1522 8.8457 1.2331 2.1704 0.12389 2.6101 0.38798 2.7924 1.6773 0.2008 1.4197 0.0613 1.4978-1.932 1.0817-4.3857-0.91556-35.314 0.45955-35.314 1.5701 0 0.99346 1.0217 1.3103 2.8669 0.88901 1.0797-0.24649 8.9182-0.4374 17.419-0.42424zm41.591-11.665c6.1358-2.5495 13.381-1.6809 21.025 2.5205l4.022 2.2108 1.062-2.0538 1.062-2.0538-2.7479-2.4386c-3.4532-3.0644-9.0684-5.8298-16.057-7.9074-11.419-3.3947-13.903-1.6724-15.242 10.569l-0.45209 4.1319 2.5103-2.0098c1.3806-1.1054 3.5484-2.4412 4.8172-2.9684zm-56.801 110.38c-1.4742-0.86136-2.8567-3.0963-2.0381-3.9149 0.83243-0.83242 5.8923-2.2206 6.6987-1.4143 0.74941 0.74941-0.64124 6.3266-2.1685 7.8539-1.217 1.217-1.0471-1.6804-2.4921-2.5247zm-139.28-2.32c-0.5987-1.5602-0.35592-10.683 0.88179-10.921 8.258-1.59 0.96785 2.7049 0.74784 5.2586 0.97489 3.9496 4.8934 6.6609 6.7996 9.9375-1.7217 0.92145-7.9731-3.0867-8.4292-4.2751h-0.00003zm8.625-46.589c0-1.2985 3.345-8.0791 8.4308-6.7523-5.438 2.4865-7.1872 7.9929-7.5858 9.4379-1.1895 4.3121-2.97 4.3945-0.845-2.6857z" fill="url(#linearGradient9889)"/>
    <path id="path3958" d="m485.4 317.05 11.922-14.903 13.199 4.2579s2.1709 13.684-6.3868 19.586c-8.5577 5.9019-19.161-7.2384-18.735-8.9416z" fill="#6381de" transform="translate(-114.44 -397.37)"/>
  </g>
  <g id="layer8" transform="translate(114.44 397.37)">
    <path id="path9042-7" d="m168.61-68.987c-44.42-0.60171-31.116 3.2013-75.4 0.33582-22.795-0.41086-67.751 12.35-65.728-8.9103l-3.192-10.814 10.311-0.074c5.671-0.0407 17.739 0.22777 26.817 0.59657 17.513 0.71145 65.806 2.3546 89.036 3.0294l13.927 0.40457 1.1355-1.7329c1.4997-2.2889 1.5993-8.0153 0.17712-10.186-1.3549-2.0679-4.2154-2.433-19.184-2.449-6.1984-0.007-19.094-0.2843-28.658-0.61711-9.5633-0.33282-28.69-0.91899-42.504-1.3026-27.184-0.75494-47.802-1.759-48.801-2.3765-0.34493-0.21318 0.2623-0.76158 1.3494-1.2187 1.9524-0.82091 4.6262-4.8912 4.6262-7.0422 0-1.7545-2.5219-6.0528-4.1942-7.1486-2.1118-1.3837-2.2279-3.8136-0.15271-3.1969 4.7951 1.4252 6.2657-0.0353 8.3592-1.9902 2.6444-2.4693 2.9437-6.7557 3.2303-10.362 0.182-2.2899 0.03205-3.3435-0.98592-6.8205-0.57216-0.87321-2.1675-2.7051-3.745-3.4715s-0.57968-1.9066-0.57968-2.1341c0-0.47096 3.6639-1.6128 7.2449-2.2579 2.3934-0.43115 3.4469 0.46251 1.449 1.2292-0.5313 0.20388-0.96599 0.65547-0.96599 1.0036 0 0.39183 2.0234 0.49853 5.313 0.28015 2.9221-0.19399 8.2109-0.0197 11.753 0.38742 3.542 0.40707 11.033 0.9954 16.648 1.3074 5.6142 0.31201 10.372 0.73137 10.572 0.93192 0.20055 0.20054-0.0417 0.36463-0.53839 0.36463-0.49666 0-5.6889 0.45006-11.538 1.0001-10.133 0.95295-18.809 2.7892-19.656 4.1604-0.51343 0.83074 0.84952 0.78659 7.0983-0.22994 5.2292-0.85067 16.854-0.60939 38.309 0.79515 4.7817 0.31302 8.9333 0.42614 9.2259 0.25137 0.8313-0.49655-3.5602-3.2159-6.3718-3.9457-1.3926-0.36146-4.2709-0.85685-6.396-1.1009-5.8004-0.66602-6.5621-1.5321-1.3676-1.555 2.4356-0.0108 9.2458-0.52554 15.134-1.1439 12.501-1.313 19.667-1.444 20.731-0.37911 0.5701 0.57091 0.30785 1.33-1.0958 3.172-1.703 2.2347-1.8442 2.8474-1.8312 7.9434 0.0112 4.3809 0.29769 6.0543 1.3863 8.0979 2.9711 5.5775 6.8667 7.435 12.01 5.7267 2.6375-0.87604 3.4726-1.5925 5.4389-4.6663 2.6845-4.1965 3.3796-8.657 2.0751-13.316-0.83998-3.0001-4.2802-6.7421-6.1985-6.7421-0.55399 0-1.9204-0.39397-3.0366-0.87549-5.3618-2.3132-5.4737-2.33-10.759-1.6187-3.0718 0.4134-9.3106 0.54211-15.295 0.31555-5.5588-0.21045-22.133-0.5427-36.833-0.73832-14.699-0.19563-27.378-0.49425-28.175-0.6636-2.0329-0.43201-4.2051-0.51291-0.69264-5.8912 4.353-6.6653 15.562-13.057 34.747-16.676 6.1121-1.153 12.866-0.91792 14.784-0.8392 0.85494 0.0351 3.9453-0.13804 6.8674-0.38474 2.9221-0.24669 5.313-0.32353 5.313-0.17073 0 0.15278-1.3765 1.1837-3.059 2.2909-1.6824 1.1072-3.9284 2.7488-4.991 3.6479-1.6223 1.3728-1.1063 1.2319 3.22-0.87917 6.0356-2.9452 15.362-5.6781 22.201-6.5062 2.6655-0.32269 5.8606-0.71886 7.1003-0.88039 2.8686-0.37376 9.916-2.015 10.685-2.4884 0.32184-0.19817 2.179-0.56067 4.1271-0.80555 6.4779-0.81431 4.2976-1.1427-5.152-0.77593-7.8079 0.30302-17.758 1.2403-35.259 3.3214-2.0813 0.2475-2.737 0.10764-2.737-0.58382 0-0.5001 2.9393-5.3487 6.5318-10.775 13.012-19.653 23.639-34.114 25.79-35.096 0.81833-0.37367 2.7744-1.7552 4.3467-3.07 4.3162-3.6092 8.2714-5.344 16.948-7.4338 14.565-3.5079 31.982-5.4967 54.896-6.2683 11.779-0.39661 12.942-0.52446 9.0159-0.9906-5.1997-0.61734-26.844-0.12404-36.542 0.83282-8.855 0.87375-24.987 3.5744-30.488 5.1039-5.1525 1.4326-6.8094 0.76239-2.9644-1.1992 4.9734-2.5372 22.143-6.3072 35.54-7.8038 11.33-1.2657 30.858-1.8311 43.089-1.2476 6.585 0.31416 19.652 0.88735 29.039 1.2738 12.173 0.50109 19.743 1.1461 26.404 2.2494 5.1359 0.85081 12.381 1.8712 16.1 2.2674 8.1657 0.87008 12.48 1.652 14.203 2.5742 2.4575 1.3152 0.6057 1.7554-3.729 0.88635-12.483-2.5026-19.915-3.5256-30.588-4.2101-11.387-0.73031-20.514-0.43019-22.402 0.7366-1.9705 1.2179 0.48833 1.5954 9.3207 1.431 5.0602-0.0942 9.89 0.10481 10.733 0.44218 1.1184 0.44759 1.2281 0.62443 0.40572 0.65421-0.61985 0.0225-1.127 0.30515-1.127 0.62821 0 0.62319 2.2236 1.0408 9.0159 1.6934 17.488 1.6802 38.499 5.613 48.476 9.0735 15.36 5.3277 21.603 11.034 29.706 27.151 4.6392 9.2282 14.089 32.052 14.159 34.199 0.11862 3.6025-1.3898 3.1349-3.2357-1.0031-0.92254-2.068-2.2809-5.0641-3.0187-6.658l-1.3413-2.898-0.3521 3.22c-0.31438 2.875-0.53049 3.2407-2.0172 3.4135-0.9266 0.10771-2.0327-0.24933-2.4938-0.805-0.4558-0.5492-1.3728-0.99855-2.0379-0.99855-0.85293 0-1.2091-0.46353-1.2091-1.5735 0-0.8821-0.61098-2.0014-1.3905-2.5474-1.1796-0.82624-1.2619-1.129-0.54249-1.9958 0.58834-0.70892 1.0536-0.81627 1.5193-0.35054 0.36921 0.36921 1.0175 0.67129 1.4407 0.67129 2.7863 0-6.3228-19.24-13.187-27.854-6.8262-8.5657-11.216-11.583-20.208-13.886-5.7838-1.4817-6.2707-1.2186-6.2742 3.3895-0.004 5.0268 4.4213 26.12 5.8646 27.954 0.67201 0.85431 1.2218 2.0847 1.2218 2.7342 0 1.3127 1.4421 1.0773 3.3345-0.54432 0.96591-0.82765 1.188-0.71815 2.093 1.0319 1.7576 3.3987 1.0941 4.5978-2.5442 4.5978-2.1412 0-2.361 0.74717-0.91795 3.12 1.7159 2.8216 1.6389 4.9987-0.19438 5.49-1.8983 0.50873-6.0042 0.5072-9.731-0.004-3.1438-0.43091-3.8579-1.1447-1.7076-1.707 2.9755-0.7781 3.2884-6.066 1.0081-17.032-0.86661-4.1675-2.1844-11.055-2.9283-15.305-2.5252-14.427-4.2023-18.079-9.3471-20.355-2.9321-1.297-18.11-3.4274-29.297-4.1122-7.6602-0.46892-15.293 0.4126-18.15 2.0963-3.7008 2.1805-6.6811 7.9318-13.422 25.902-3.7645 10.035-3.5582 14.945 0.87236 20.752l2.1088 2.7641 5.1186 0.0531c8.4365 0.0876 31.357 1.577 33.776 2.1948 1.2397 0.31654 7.3102 1.1808 13.49 1.9206s11.372 1.4811 11.538 1.6472c0.44212 0.44212-1.1282 0.39271-19.554-0.61531-22.786-1.2465-34.642-1.438-48.099-0.77688-8.9556 0.43998-11.468 0.75835-11.748 1.4889-0.30645 0.7986-0.55859 0.78781-1.7928-0.0766-0.7899-0.553-2.3689-1.0057-3.5089-1.0057s-2.2524-0.29086-2.4722-0.64636c-0.21971-0.3555-1.0789-0.47583-1.9093-0.26741-0.912 0.2289-2.1792-0.0596-3.2003-0.72867-1.9848-1.3005-2.9524-1.2422-28.241 1.7013-21.12 2.4582-30.968 4.7842-34.28 8.0956-1.0381 1.0381-1.0142 1.1329 0.42199 1.6705l1.5226 0.56992-1.8551 1.606-1.8551 1.606 4.1091-0.422c2.26-0.2321 8.3112-1.3952 13.447-2.5848 8.4858-1.9654 22.089-4.2327 42.717-7.1196 5.8026-0.81211 7.9521-0.89312 9.0159-0.33979 1.063 0.5529 2.1957 0.51165 4.739-0.17255 1.8382-0.49451 3.4809-0.76041 3.6504-0.59088 0.16953 0.16953 5.5318 0.28083 11.916 0.24733 22.079-0.11588 58.395 2.0642 69.799 4.1902 2.9233 0.54495 7.4886 1.3576 10.145 1.8059 2.6565 0.44831 5.2647 0.99275 5.796 1.2099 1.3034 0.53266 15.684 2.8728 22.862 3.7202 10.961 1.2942 15.754 3.2546 20.674 8.4562 4.9858 5.2718 5.9938 8.0674 2.6318 7.2995-3.0382-0.69393-21.829-2.9018-30.067-3.5328-13.853-1.0611-15.558-1.2253-19.635-1.8909-2.1213-0.34633-10.815-0.94406-19.32-1.3283-8.5046-0.38424-25.424-1.2945-37.599-2.0228-13.913-0.8323-25.157-1.1858-30.268-0.95154-4.4725 0.20496-23.636 0.69519-42.586 1.0894-39.182 0.81513-50.388 1.7556-50.752 4.2595-0.25718 1.767 1.1164 2.1899 7.9306 2.442 6.5253 0.24141 8.0458 0.67532 8.0458 2.2961 0 2.291 3.4824 0.82105 3.9551-1.6694 0.17795-0.93753 0.83261-1.3133 2.4901-1.4293 11.315-0.79182 35.916-2.9778 41.854-3.7191 4.0733-0.50847 12.043-0.90272 17.71-0.87611 18.382 0.0863 57.822 1.0164 63.112 1.4883 7.9006 0.70486 30.402 2.972 35.098 3.5363 2.6678 0.32061 4.5757 0.25978 5.2607-0.16773 0.77218-0.48197 1.3534-0.43949 2.0648 0.1509 0.54454 0.45193 1.2805 0.6422 1.6355 0.42281 1.5766-0.97437 33.158 4.0846 39.976 6.4038 5.5396 1.8842 9.4448 4.0658 12.188 6.809 2.7962 2.7962 2.4734 3.3399-1.0729 1.807-4.0804-1.7637-8.2917-1.392-11.441 1.0097-1.6187 1.2346-2.2583 2.1867-2.1201 3.1561 0.18886 1.3253 0.46381 1.3778 6.0751 1.1591 4.6949-0.18293 6.3792 0.008 8.3719 0.94738 5.4285 2.5599 11.396 10.702 13.162 17.957 0.43107 1.771 1.1776 3.6775 1.659 4.2367l-17.424 54.248-33.74-17.448c-34.493-0.24169-72.375-1.3983-98.161 0.05783-24.158 1.3642-31.031 15.226-35.4 16.684-2.679 0.89431-14.782 5.8854-33.791 5.3209l-23.19-27.828zm47.233 19.695c6.5215-2.44 12.648-9.4812 15.098-17.352 1.7856-5.7371 1.6512-14.421-0.309-19.974-2.6676-7.5566-7.6101-13.444-13.867-16.516-3.1612-1.5525-4.3512-1.769-9.7201-1.769-5.557 0-6.4293 0.17251-9.5139 1.8815-3.7056 2.053-6.9035 4.9054-9.22 8.2238-1.3828 1.9808-1.2712 1.9341 1.5872-0.66381 7.1475-6.4961 14.856-7.1152 23.564-1.8925 7.0267 4.2142 11.285 12.568 11.279 22.125-0.003 4.7056-0.23321 5.6673-2.4066 10.065-3.8607 7.8116-10.054 12.486-17.461 13.178-3.9217 0.36621-4.5891 0.23168-8.5682-1.7273-2.3734-1.1684-5.612-3.4559-7.1969-5.0833-3.5582-3.6536-2.339-1.0704 1.4256 3.0204 6.752 7.3372 16.413 9.8125 25.309 6.4842zm1.0291-5.7015c6.4074-5.7599 9.0367-12.231 9.0269-22.218-0.007-7.4621-1.5999-11.835-6.1054-16.765-3.7381-4.0901-7.4376-6.4474-11.139-7.0976-4.6698-0.82038-4.801-1.6476-0.22472-1.4166 8.2929 0.41852 15.894 6.4242 19.327 15.27 1.9658 5.0653 2.3785 14.756 0.83705 19.656-2.0632 6.5594-7.2702 12.576-12.856 14.854l-2.576 1.0508 3.7093-3.3345zm176.88 2.0937c2.4715-1.8109 5.6342-6.8061 6.7331-10.634 3.4033-11.856 2.514-24.258-2.2344-31.16-3.3442-4.8605-6.0121-5.7726-10.743-3.6725-1.9712 0.87513-2.1667 1.115-1.1063 1.3573 0.7084 0.16189 1.7227 0.6254 2.254 1.03 0.81772 0.62276 0.84329 0.57832 0.16659-0.28955-1.0135-1.2998-0.44116-1.8727 1.8709-1.8727 1.1906 0 2.7189 0.80959 4.4064 2.3342 3.7473 3.3854 5.43 9.1424 5.4529 18.655 0.0169 7.0714-0.009 7.1942-2.5588 12.228-2.8164 5.5589-7.1191 10.576-9.0665 10.573-0.95261-0.002-0.77624-0.2836 0.76636-1.2242 4.5939-2.8013 6.6593-8.5855 7.1504-20.025 0.36834-8.5798-0.22227-11.821-2.2071-12.112-0.8182-0.11989-1.737 0.35671-2.3358 1.2116-1.442 2.0587-3.1418 1.1889-2.882-1.4746 0.1774-1.8189-0.0792-2.2183-2.0512-3.1932-3.181-1.5726-4.8538-1.4363-6.3932 0.52069-1.8263 2.3218-1.7497 3.5838 0.18797 3.0975 2.1164-0.53118 2.6784 1.2713 1.1907 3.8186-1.3537 2.3178-3.3223 3.0393-3.4249 1.2552-0.13763-2.3931-1.767 4.094-1.8079 7.1977-0.054 4.0978 0.59196 8.0499 1.3157 8.0499 0.30786 0 0.55974-0.45485 0.55974-1.0108 0-1.708 2.7932-0.82436 3.4658 1.0964 0.86725 2.4766 0.12389 3.7783-2.1576 3.7783-2.1852 0-2.5836 1.2086-0.9402 2.852 1.6177 1.6177 5.6478 1.2857 7.9545-0.65524 1.5059-1.2672 1.9814-2.1992 1.9814-3.8842 0-2.1058 1.0501-3.2606 2.4736-2.7203 0.89482 0.33969-0.76159 5.9592-2.5253 8.5674-0.85705 1.2674-2.6375 2.8061-3.9566 3.4193-1.3191 0.61323-2.4058 1.3366-2.415 1.6074-0.009 0.27085 0.92523 1.083 2.0764 1.8048 2.4997 1.5674 6.2484 1.3435 8.7992-0.52548zm-181.57-5.8736c4.0127-2.4025 6.7071-6.2028 7.9742-11.247 2.1073-8.3894 0.99145-13.999-3.919-19.699-3.0519-3.543-5.7558-5.0014-11.124-5.9997-2.9073-0.54066-4.4439-0.51818-6.4905 0.095-3.0486 0.9134-8.4849 5.6643-9.491 8.2945-1.1693 3.0569-2.7662 10.437-2.39 11.045 0.19939 0.32263 0.0518 1.2686-0.32796 2.1021-0.54461 1.1953-0.4151 2.1579 0.61292 4.5562 0.71688 1.6724 1.5391 3.0408 1.8272 3.0408 0.28807 0 1.0822-0.65205 1.7648-1.449l1.2411-1.449 0.51114 2.459c0.31684 1.5243 0.24717 2.9523-0.18327 3.7566-0.54795 1.0239-0.44621 1.5718 0.4824 2.5979 4.0669 4.4939 13.622 5.4227 19.511 1.8967v-0.00001zm-9.6377-3.3042c0-0.3542 0.3069-0.64399 0.682-0.64399s0.50289 0.28979 0.28399 0.64399c-0.21891 0.3542-0.52581 0.644-0.68201 0.644-0.15619 0-0.28398-0.2898-0.28398-0.644zm8.3719-0.96599c0-1.672 1.5516-2.2695 2.0902-0.80499 0.4433 1.2054-0.14665 2.415-1.1779 2.415-0.54382 0-0.91233-0.65031-0.91233-1.61zm-15.027-0.75133c-0.23613-0.23613-0.42933-1.0606-0.42933-1.8322 0-0.77157-0.57959-1.9274-1.288-2.5685-1.2739-1.1528-1.784-3.542-0.75625-3.542 0.70272 0 2.9792 2.5255 3.9184 4.347 0.53904 1.0454 0.55515 1.8077 0.0578 2.737-0.75927 1.4187-0.87594 1.4854-1.5026 0.85866h0.00001zm-3.8417-14.146c-1.0141-1.0141-0.41219-2.2529 0.99739-2.0527 0.79694 0.11318 1.449 0.63652 1.449 1.163 0 1.0232-1.6961 1.64-2.4464 0.88974zm22.518-6.4622c-0.76427-0.76426-0.45502-2.643 0.49505-3.0076 1.0541-0.4045 1.5798 0.65163 1.1497 2.3099-0.30444 1.1738-0.91119 1.4312-1.6447 0.69766zm-19.749-1.4773c0-0.34023 0.47239-0.99228 1.0498-1.449 0.57737-0.45671 2.0264-1.8289 3.22-3.0492l2.1702-2.2188v1.7032c0 1.0898-0.75374 2.4096-2.093 3.6648-2.0239 1.8969-4.347 2.6178-4.347 1.349zm-0.85866-3.0307c-0.23614-0.23613-0.42933-0.98188-0.42933-1.6572 0-1.7551 2.1996-1.1791 2.4598 0.64413 0.19819 1.3891-1.0377 2.0058-2.0304 1.0131zm12.826-1.4162c-0.27741-0.44886-0.33047-0.99003-0.11791-1.2026 0.57636-0.57635 1.2048 0.27132 0.89348 1.2052-0.21814 0.65441-0.36983 0.6539-0.77557-0.003v0.00039zm-21.964 4.5825c0.27357-1.1511 0.33951-2.093 0.14652-2.093-0.98155 0-2.281 8.97-1.8659 12.88l0.44442 4.186 0.38878-6.44c0.21384-3.542 0.61263-7.3818 0.8862-8.5329zm-154.22 3.381c-0.44094-0.53129-1.056-0.96599-1.3668-0.96599-0.31083 0-0.56515 0.4347-0.56515 0.96599 0 0.55524 0.5812 0.96599 1.3668 0.96599 1.142 0 1.235-0.15893 0.56515-0.96599zm122.12-20.783c4.5609-3.6944 3.3178-11.471-2.0714-12.959-3.6113-0.99713-6.4285 0.4247-8.0343 4.0549-1.207 2.7286-1.2183 3.0143-0.21856 5.513 0.57993 1.4494 1.6639 3.0622 2.4088 3.5839 1.8397 1.2886 6.2184 1.182 7.9154-0.19263zm83.998-17.451c-2.2025-4.3172-8.7108-10.757-13.076-12.938-4.1711-2.0843-9.0359-2.7517-7.6197-1.0452 1.1374 1.3704-0.76075 1.7114-6.073 1.0911-4.019-0.46934-4.2809-0.58032-2.415-1.0232 4.685-1.1119 1.1618-2.4679-4.1612-1.6016-4.0341 0.65656-8.482 2.6232-10.182 4.502-1.1285 1.2469-1.0987 1.2717 1.5249 1.2717 2.8754 0 3.3094 0.71877 1.71 2.8318-1.7286 2.2837-0.2676 2.3088 4.1744 0.0719 2.437-1.2272 5.9295-2.8008 7.761-3.4967 3.2695-1.2423 3.4166-1.2437 8.0806-0.0782 2.6128 0.65292 6.0285 1.8058 7.5905 2.562 2.629 1.2727 11.965 8.7277 12.974 10.36 0.2431 0.39335 0.5781 0.57908 0.74445 0.41274 0.16633-0.16634-0.29844-1.4802-1.0328-2.9198zm-162.97-8.0867c0-0.50562 0.94184-1.6616 2.093-2.5688l2.093-1.6495-2.1241-0.007c-1.7882-0.006-2.2628 0.32286-3.0014 2.0795-0.48255 1.1476-0.74125 2.3068-0.5749 2.576 0.51113 0.82705 1.5144 0.54222 1.5144-0.42993v-0.00015zm9.1261-1.4957c-0.27458-2.41-0.27238-2.4125 1.0713-1.2099 1.4744 1.3196 3.3264 1.0185 3.3264-0.54089 0-0.77344-0.81435-0.9862-3.7747-0.9862-3.6112 0-3.7622 0.0653-3.4863 1.5083 0.16792 0.8784-0.15755 1.9542-0.7793 2.576-0.99418 0.99418-0.89615 1.0676 1.425 1.0676h2.4927l-0.27516-2.415zm246.99-24.032c-0.33482-1.2803-0.13661-1.323 5.2378-1.127 5.557 0.20264 5.5858 0.19555 5.5858-1.3775 0-1.322-0.42221-1.673-2.576-2.1413-2.422-0.52665-9.175-0.19782-12.397 0.60365-1.61 0.4005-2.0031 2.1528-0.48299 2.1528 0.53129 0 0.96599 0.37674 0.96599 0.83719 0 1.2186 1.3582 2.3828 2.7799 2.3828 0.93044 0 1.1486-0.32758 0.88632-1.3307zm-197.33-31.139c4.5251-0.84261 8.6568-1.8883 9.1814-2.3237 0.77627-0.64426 1.4547-0.46034 3.6425 0.98751l2.6886 1.7792 1.2433-1.5356 1.2433-1.5356 19.408-0.32416c20.604-0.34412 22.198-0.17286 25.333 2.7213 1.3639 1.2594 3.4137 1.2136 3.4137-0.0763 0-0.60396-1.9638-2.3011-4.2039-3.6328-1.0639-0.63252-1.0505-1.1212 0.25223-9.2188 0.75661-4.703 1.3756-9.4108 1.3756-10.462 0-3.0326-1.649-6.1979-3.8114-7.3161-2.8712-1.4848-13.552-2.8421-26.264-3.3375l-11.077-0.43177-0.63108 1.549c-0.3471 0.85197-1.0986 5.0266-1.6701 9.277-0.57145 4.2504-1.3161 9.4905-1.6547 11.645-0.87582 5.5718-0.87441 5.5781 1.1553 5.1501 3.655-0.77066 16.013-2.4413 17.871-2.416 1.9052 0.026 5.6793 0.52301 8.5593 1.1273 0.81143 0.17025 1.3283 0.54741 1.1486 0.83814-0.34565 0.55928-16.689 1.6637-24.842 1.6787-2.6565 0.005-5.0429 0.2987-5.3031 0.6529-0.85989 1.1704-0.5029-5.6522 0.80668-15.417 0.74683-5.5686 1.0506-9.8605 0.72129-10.19-0.32934-0.32934-1.7563-0.25445-3.3879 0.17782-2.0611 0.54607-3.771 1.7314-6.3609 4.4094-4.3409 4.4887-13.843 18.371-13.241 19.345 0.24066 0.3894 1.797 0.72837 3.4585 0.75326 1.6615 0.0249 3.5941 0.26918 4.2946 0.54286 1.2448 0.48632 1.2421 0.51449-0.11866 1.2427-0.76576 0.40982-2.3532 0.75863-3.5276 0.77514-2.9571 0.0415-9.1693 2.7002-9.4262 4.0341-0.26477 1.3748-0.15651 1.3696 9.7224-0.46992v0.00005zm5.3081-5.5073c-0.47041-0.76113 2.5044-1.5912 3.8509-1.0745 0.53209 0.20417 0.96743 0.67012 0.96743 1.0354 0 0.84246-4.3002 0.87735-4.8183 0.0391zm46.839-1.0922c-0.44274-0.1771-0.80499-0.6078-0.80499-0.95712 0-0.82329 2.6197-0.42353 2.6498 0.40435 0.0275 0.75774-0.74998 0.99069-1.8448 0.55277zm39.853 3.401c0.9332-1.7305 2.0708-4.2798 2.528-5.6651 0.75812-2.2971 0.71594-2.634-0.47953-3.8295-1.7029-1.703-8.053-2.3429-12.075-1.2169-4.7832 1.3392-10.024 6.6752-10.024 10.206 0 1.7112 2.5833 2.6484 9.0704 3.2905 8.8347 0.87443 9.0342 0.82383 10.98-2.7847zm8.6919-0.6329c1.5473-1.5473 2.8132-3.1345 2.8132-3.5271 0-0.39264-0.70505-1.1759-1.5668-1.7405-1.2466-0.81678-1.8501-0.87501-2.9527-0.28489-1.4329 0.76688-3.8134 5.2563-3.8383 7.2388-0.0256 2.0403 2.6237 1.2346 5.5446-1.6862zm-26.118-7.2314c2.6945-2.8868 6.2855-4.3111 11.682-4.6334 5.7297-0.34221 9.972 0.75627 14.811 3.8352 3.3241 2.1149 3.8997 2.0286 5.3646-0.80424 1.1708-2.2642 0.83042-3.016-2.6045-5.7522-5.41-4.3095-17.549-9.0045-23.281-9.0045-2.4468 0-3.2742 0.3451-5.0251 2.096-2.1262 2.1262-2.2466 2.5333-3.9033 13.199-0.51028 3.2852 0.53327 3.6608 2.9568 1.0643zm146.76-15.445c-1.5791-1.6223-3.7405-3.3763-4.803-3.8978-1.3549-0.66493-0.68165 0.20972 2.254 2.9282 4.9192 4.5554 6.6979 5.2319 2.5491 0.96953zm-8.345-6.0515c-2.9364-2.27-13.466-5.8635-19.264-6.5748-3.0414-0.37305-6.4587-1.0857-7.594-1.5836-3.1543-1.3835-18.544-3.5555-17.451-2.463 0.22316 0.22317 2.9148 0.95405 5.9814 1.6242 3.0666 0.67013 7.338 2.114 9.4919 3.2086 2.6728 1.3582 4.058 1.761 4.3624 1.2684 0.28299-0.45788 1.1816 0.11603 2.4581 1.5699 1.1066 1.2604 2.2192 2.2916 2.4724 2.2916 0.25319 0 1.7034-0.60174 3.2226-1.3372 2.5039-1.2121 3.1085-1.2653 6.4648-0.56854 2.0364 0.42275 5.1594 1.4354 6.94 2.2504 4.0062 1.8336 5.0228 1.9431 2.9155 0.31409zm-81.32-14.038 3.3658-2.6053-2.0129-0.7017c-2.1918-0.76408-7.6994-0.92069-10.068-0.28628-1.088 0.2914-1.355 0.67673-0.99816 1.4402 0.64688 1.3838 0.64263 4.8802-0.0103 8.4483l-0.53029 2.898 3.444-3.2939c1.8942-1.8116 4.9587-4.4663 6.8099-5.8992h0.00002zm94.682 61.252c0.44274-0.17866 1.1672-0.17866 1.61 0 0.44275 0.17865 0.0805 0.32482-0.80499 0.32482s-1.2477-0.14617-0.80499-0.32482zm-5.474-0.66142c0.61984-0.16198 1.6341-0.16198 2.254 0 0.61985 0.16198 0.1127 0.29452-1.127 0.29452s-1.7468-0.13254-1.127-0.29452zm-32.039-2.776c-0.21891-0.3542-0.21891-0.93379 0-1.288 0.21891-0.3542 0.11526-0.64399-0.23033-0.64399-0.34558 0-0.72493 0.25323-0.843 0.56275-0.11985 0.31422-4.9077 0.19039-10.841-0.28037-5.8442-0.46373-13.234-1.0252-16.422-1.2476-8.4984-0.59309-8.4676-0.58144-8.9151-3.373-0.21372-1.333-0.58293-3.438-0.82047-4.6777l-0.43189-2.254 1.5996 1.4644c2.5028 2.2912 5.2446 2.7859 11.434 2.0632 3.028-0.35352 10.065-0.82991 15.637-1.0586 8.825-0.36224 10.177-0.55979 10.486-1.532 0.34921-1.1003-3.6219-22.765-4.9271-26.881-1.1404-3.5956-2.3525-3.9318-11.826-3.2807-7.3185 0.50303-19.11 1.8683-25.155 2.9125l-1.9715 0.34054-0.80251-4.4022c-0.44138-2.4212-0.96217-5.0543-1.1573-5.8512-0.3466-1.4155-0.23041-1.4489 5.028-1.4468 11.893 0.005 30.273 2.406 33.702 4.4025 3.4195 1.9915 4.5313 5.1592 7.6872 21.901 3.169 16.811 3.5538 21.497 1.9532 23.783-1.0564 1.5083-2.5149 1.869-3.1835 0.78729zm-41.183-4.405c-0.24969-0.78672-1.2149-1.409-2.5838-1.6658-1.2018-0.22547-2.2787-0.62423-2.393-0.88613-0.11433-0.2619-3.9028-0.36782-8.4188-0.23539-6.4858 0.19021-8.2109 0.42984-8.2109 1.1406 0 2.3018-4.0952-0.27437-5.8244-3.664-1.0319-2.0226-1.1426-2.9604-0.65354-5.5366 0.8642-4.5525 3.9105-12.5 5.5609-14.507 0.78932-0.96006 1.9519-3.1335 2.5835-4.83 0.63159-1.6964 2.0129-4.6434 3.0695-6.5488 1.6118-2.9066 2.474-3.7089 5.3546-4.9828 4.1432-1.8323 4.5682-3.1444 0.85727-2.6467-1.4169 0.19005-2.4189 0.0912-2.2268-0.21969 0.53025-0.85797 5.5453-2.0563 6.0772-1.4521 0.4035 0.45832 8.2844 42.22 8.594 45.54 0.1546 1.6581-1.2894 2.0579-1.7857 0.49431zm73.383-5.255c-0.21891-0.3542 0.19868-0.644 0.92798-0.644s1.326 0.2898 1.326 0.644c0 0.35419-0.41759 0.64399-0.92798 0.64399-0.5104 0-1.1071-0.2898-1.326-0.64399z" fill="url(#linearGradient9881)"/>
  </g>
  <g id="layer5" transform="translate(114.44 397.37)">
    <path id="path9040-7" d="m161.08-67.347c-35.4-0.5-84.72-2.465-112.76-7.257-28.032-4.792-19.814-11.567-19.814-11.567s3.77-3.3392 35.278 0.08606c34.953 2.3099 67.264 5.1355 100.47 1.6884 2.659-1.0203 3.7963-8.1468 1.8888-11.835-0.90052-1.7414-2.3592-2.4865-4.8182-2.4613-12.188 0.12501-73.485-1.4906-104.65-2.7582-25.88-1.0527-29.302-1.2748-29.302-1.9021 0-0.32101 0.38418-0.58366 0.85374-0.58366 0.46955 0 1.5344-0.72449 2.3662-1.61 0.83188-0.8855 1.8634-1.61 2.2922-1.61 1.1311 0 2.8598-2.906 2.8598-4.8073 0-0.89796 0.25337-1.6326 0.56305-1.6326 0.93774 0 5.2329-4.216 5.2329-5.1365 0-0.63286-0.31813-0.57118-1.2081 0.23425-0.66447 0.60133-2.2694 1.2656-3.5666 1.476-1.3845 0.22468-2.6328 0.89531-3.0228 1.624-0.52039 0.97235-0.85851 1.0802-1.5605 0.49759-0.49288-0.40905-1.0865-1.3696-1.3192-2.1346-0.23271-0.76495-0.87967-1.9104-1.4377-2.5454-0.95989-1.0923-0.87719-1.1326 1.5344-0.74695 2.3595 0.37729 2.7708 0.19978 5.5328-2.3874 3.2573-3.0512 4.394-5.8867 4.4-10.976 0.002-1.6658 0.3345-3.7549 0.73894-4.6426 1.0119-2.2208-0.50331-4.4127-4.4484-6.4354-3.2564-1.6695-3.0945-1.9311 1.6017-2.5882 2.1223-0.29693 2.6455-0.19009 2.3857 0.48712-0.6446 1.6798 1.3775 2.5542 3.9462 1.7064 1.8946-0.62528 3.9802-0.55786 10.991 0.35527 8.733 1.1374 10.808 1.8557 7.5154 2.6012-5.3287 1.2063-10.444 2.9837-11.196 3.8906-0.81709 0.98454-1.9764 2.8384-2.8911 4.623-0.69625 1.3585 0.27637 1.7113 1.5472 0.5612 0.64833-0.58673 3.4756-1.6724 6.2829-2.4127 4.6092-1.2154 6.759-1.338 22.17-1.2649 9.3862 0.0446 19.674 0.35419 22.862 0.68813 7.4703 0.78256 12.558 0.79062 12.558 0.0199 0-0.85541-6.3936-4.9965-8.539-5.5306-3.4176-0.85089-2.3238-1.4157 4.209-2.1733 10.849-1.2581 19.786-1.6358 19.786-0.8363 0 0.38731-0.65205 1.8075-1.449 3.156-1.156 1.956-1.449 3.4286-1.4489 7.2818 0.00009 4.1515 0.26885 5.3152 1.9134 8.2845 1.9972 3.6061 5.4797 6.5274 7.7812 6.5274 0.74018 0 2.7284-0.4711 4.4182-1.0469 2.5703-0.87581 3.4519-1.6388 5.3946-4.669 5.1635-8.0541 2.6929-18.251-4.8845-20.159-3.6446-0.91773-2.7125-1.8223 2.3509-2.2814 3.766-0.34149 3.946-0.28976 4.5537 1.3086 1.1635 3.0603 3.0114 3.6725 11.377 3.769l7.667 0.0885 1.6497 1.9352c2.1917 2.571 4.6785 2.0876 6.0415-1.1745l0.93707-2.2427 4.7018-0.005c2.586-0.003 7.1651-0.28822 10.176-0.63451 9.6348-1.1082 38.712-2.9039 46.368-2.8635 4.0733 0.0215 7.582-0.21855 7.7971-0.53346 0.21515-0.3149 1.515 0.0298 2.8884 0.76591 1.8893 1.0126 3.6672 1.3384 7.3031 1.3384 5.574 0 20.456 1.035 28.379 1.9736 9.9246 1.1758 21.251 3.3425 25.116 4.8048 1.5939 0.603 5.8386 1.4378 9.4328 1.8552 3.5942 0.41736 6.9268 1.0688 7.406 1.4478 0.4791 0.37891 1.723 0.89308 2.7641 1.1426 1.0412 0.24953 2.7799 1.3287 3.864 2.3982 1.084 1.0694 2.7328 2.3435 3.6639 2.8313 0.93112 0.48773 1.8825 1.3807 2.1141 1.9843 0.31193 0.81287 0.60902 0.90963 1.1455 0.37311 0.53653-0.53653 0.50358-0.99045-0.12701-1.7503-0.73017-0.8798-0.64771-1.0792 0.5791-1.4 1.359-0.35539 1.4116-0.6088 1.0535-5.07-0.38567-4.8035 0.16197-6.2485 1.8402-4.8557 0.45982 0.38162 0.98152 0.54837 1.1593 0.37057 0.1778-0.17781 1.5106 0.0956 2.9617 0.60759 1.4511 0.51198 3.4648 0.90738 4.4747 0.87866 1.01-0.0287 2.5392 0.32392 3.3982 0.78365 0.85901 0.45973 3.31 1.0675 5.4466 1.3506 5.5096 0.73005 11.294 2.1326 11.814 2.8648 0.44354 0.62422 3.3974 2.1327 6.7219 3.4329 2.2478 0.87906 2.2217 1.443-0.23183 5.0091-2.6399 3.837-1.9931 4.4934 3.4008 3.4508 2.2418-0.43329 4.8207-0.92821 5.7309-1.0998 2.4508-0.46213 6.5155 0.83302 10.011 3.1898 4.1149 2.7747 8.0422 8.7942 10.239 15.694 0.96818 3.0406 1.9522 5.2179 2.1866 4.8386 0.23447-0.37938 1.0343 3.2154 0.18169 7.8188-1.4327 7.7359-0.0921 5.2762-0.71332 6.2549-30.513-41.49 15.448 51.488-46.671 21.86l-76.583-0.10726c-67.251-2.98-27.502 20.345-94.816 19.681l-30.814-24.164zm54.77 18.055c6.5215-2.44 12.648-9.4812 15.098-17.352 1.7856-5.7371 1.6512-14.421-0.309-19.974-2.6676-7.5566-7.6101-13.444-13.867-16.516-3.1612-1.5525-4.3512-1.769-9.7201-1.769-5.557 0-6.4293 0.17251-9.5139 1.8815-3.7056 2.053-6.9035 4.9054-9.22 8.2238-1.3828 1.9808-1.2712 1.9341 1.5872-0.66381 7.1475-6.4961 14.856-7.1152 23.564-1.8925 7.0267 4.2142 11.285 12.568 11.279 22.125-0.003 4.7056-0.23321 5.6673-2.4066 10.065-3.8607 7.8116-10.054 12.486-17.461 13.178-3.9217 0.36621-4.5891 0.23168-8.5682-1.7273-2.3734-1.1684-5.612-3.4559-7.1969-5.0833-3.5582-3.6536-2.339-1.0704 1.4256 3.0204 6.752 7.3372 16.413 9.8125 25.309 6.4842zm1.0291-5.7015c6.4074-5.7599 9.0367-12.231 9.0269-22.218-0.007-7.4621-1.5999-11.835-6.1054-16.765-3.7381-4.0901-7.4376-6.4474-11.139-7.0976-4.6698-0.82038-4.801-1.6476-0.22472-1.4166 8.2929 0.41852 15.894 6.4242 19.327 15.27 1.9658 5.0653 2.3785 14.756 0.83705 19.656-2.0632 6.5594-7.2702 12.576-12.856 14.854l-2.576 1.0508 3.7093-3.3345zm176.88 2.0937c2.4715-1.8109 5.6342-6.8061 6.7331-10.634 3.4033-11.856 2.514-24.258-2.2344-31.16-3.3442-4.8605-6.0121-5.7726-10.743-3.6725-1.9712 0.87513-2.1667 1.115-1.1063 1.3573 0.7084 0.16189 1.7227 0.6254 2.254 1.03 0.81772 0.62276 0.84329 0.57832 0.16659-0.28955-1.0135-1.2998-0.44116-1.8727 1.8709-1.8727 1.1906 0 2.7189 0.80959 4.4064 2.3342 3.7473 3.3854 5.43 9.1424 5.4529 18.655 0.20906 7.957-3.5075 19.574-11.625 22.8-0.95261-0.002-0.77624-0.2836 0.76636-1.2242 4.5939-2.8013 6.6593-8.5855 7.1504-20.025 0.36834-8.5798-0.22227-11.821-2.2071-12.112-0.8182-0.11989-1.737 0.35671-2.3358 1.2116-1.442 2.0587-3.1418 1.1889-2.882-1.4746 0.1774-1.8189-0.0792-2.2183-2.0512-3.1932-3.181-1.5726-4.8538-1.4363-6.3932 0.52069-1.8263 2.3218-1.7497 3.5838 0.18797 3.0975 2.1164-0.53118 2.6784 1.2713 1.1907 3.8186-1.3537 2.3178-3.3223 3.0393-3.4249 1.2552-0.13763-2.3931-1.767 4.094-1.8079 7.1977-0.054 4.0978 0.59196 8.0499 1.3157 8.0499 0.30786 0 0.55974-0.45485 0.55974-1.0108 0-1.708 2.7932-0.82436 3.4658 1.0964 0.86725 2.4766 0.12389 3.7783-2.1576 3.7783-2.1852 0-2.5836 1.2086-0.9402 2.852 1.6177 1.6177 5.6478 1.2857 7.9545-0.65524 1.5059-1.2672 1.9814-2.1992 1.9814-3.8842 0-2.1058 1.0501-3.2606 2.4736-2.7203 0.89482 0.33969-0.76159 5.9592-2.5253 8.5674-0.85705 1.2674-2.6375 2.8061-3.9566 3.4193-1.3191 0.61323-2.4058 1.3366-2.415 1.6074-0.009 0.27085 0.92523 1.083 2.0764 1.8048 2.4997 1.5674 6.2484 1.3435 8.7992-0.52548zm-181.57-5.8736c4.0127-2.4025 6.7071-6.2028 7.9742-11.247 2.1073-8.3894 0.99145-13.999-3.919-19.699-3.0519-3.543-5.7558-5.0014-11.124-5.9997-2.9073-0.54066-4.4439-0.51818-6.4905 0.095-3.0486 0.9134-8.4849 5.6643-9.491 8.2945-1.1693 3.0569-2.7662 10.437-2.39 11.045 0.19939 0.32263 0.0518 1.2686-0.32796 2.1021-0.54461 1.1953-0.4151 2.1579 0.61292 4.5562 0.71688 1.6724 1.5391 3.0408 1.8272 3.0408 0.28807 0 1.0822-0.65205 1.7648-1.449l1.2411-1.449 0.51114 2.459c0.31684 1.5243 0.24717 2.9523-0.18327 3.7566-0.54795 1.0239-0.44621 1.5718 0.4824 2.5979 4.0669 4.4939 13.622 5.4227 19.511 1.8967v-0.00001zm-9.6377-3.3042c0-0.3542 0.3069-0.64399 0.682-0.64399s0.50289 0.28979 0.28399 0.64399c-0.21891 0.3542-0.52581 0.644-0.68201 0.644-0.15619 0-0.28398-0.2898-0.28398-0.644zm8.3719-0.96599c0-1.672 1.5516-2.2695 2.0902-0.80499 0.4433 1.2054-0.14665 2.415-1.1779 2.415-0.54382 0-0.91233-0.65031-0.91233-1.61zm-15.027-0.75133c-0.23613-0.23613-0.42933-1.0606-0.42933-1.8322 0-0.77157-0.57959-1.9274-1.288-2.5685-1.2739-1.1528-1.784-3.542-0.75625-3.542 0.70272 0 2.9792 2.5255 3.9184 4.347 0.53904 1.0454 0.55515 1.8077 0.0578 2.737-0.75927 1.4187-0.87594 1.4854-1.5026 0.85866h0.00001zm-3.8417-14.146c-1.0141-1.0141-0.41219-2.2529 0.99739-2.0527 0.79694 0.11318 1.449 0.63652 1.449 1.163 0 1.0232-1.6961 1.64-2.4464 0.88974zm22.518-6.4622c-0.76427-0.76426-0.45502-2.643 0.49505-3.0076 1.0541-0.4045 1.5798 0.65163 1.1497 2.3099-0.30444 1.1738-0.91119 1.4312-1.6447 0.69766zm-19.749-1.4773c0-0.34023 0.47239-0.99228 1.0498-1.449 0.57737-0.45671 2.0264-1.8289 3.22-3.0492l2.1702-2.2188v1.7032c0 1.0898-0.75374 2.4096-2.093 3.6648-2.0239 1.8969-4.347 2.6178-4.347 1.349zm-0.85866-3.0307c-0.23614-0.23613-0.42933-0.98188-0.42933-1.6572 0-1.7551 2.1996-1.1791 2.4598 0.64413 0.19819 1.3891-1.0377 2.0058-2.0304 1.0131zm12.826-1.4162c-0.27741-0.44886-0.33047-0.99003-0.11791-1.2026 0.57636-0.57635 1.2048 0.27132 0.89348 1.2052-0.21814 0.65441-0.36983 0.6539-0.77557-0.003v0.00039zm40.494 6.6755c-0.0131-6.0214-0.39459-12.976-0.84766-15.456-2.9345-16.059-12.093-29.849-23.566-35.482-5.1031-2.5058-5.141-2.5132-12.88-2.4906-9.5131 0.0278-13.014 1.2059-19.008 6.3964-6.1839 5.3553-8.0727 8.7411-2.7085 4.8553 2.7016-1.9571 5.2604-2.5454 5.2604-1.2095 0 0.39982-0.99038 1.8232-2.2008 3.163-2.3192 2.567-3.9273 5.126-3.2214 5.126 0.23048 0 2.3417-1.2776 4.6916-2.839 12.398-8.2384 17.838-9.8891 25.835-7.8402 5.2881 1.3547 9.2642 3.918 14.106 9.0935 8.23 8.7979 10.749 15.879 12.017 33.786 0.48932 6.9068 0.90884 13.427 0.93228 14.49 0.0397 1.7994 0.0965 1.8436 0.82802 0.644 0.53932-0.88445 0.77792-4.7181 0.7615-12.236zm-62.458-2.093c0.27357-1.1511 0.33951-2.093 0.14652-2.093-0.98155 0-2.281 8.97-1.8659 12.88l0.44442 4.186 0.38878-6.44c0.21384-3.542 0.61263-7.3818 0.8862-8.5329zm-33.265-16.318c2.3584-0.82212 4.6218-4.144 4.6204-6.781-0.001-2.592-1.9468-6.193-3.863-7.1505-2.1804-1.0895-5.8577-1.0305-7.5007 0.12026-1.5865 1.1113-3.4472 4.7731-3.4472 6.7842 0 2.2689 1.9598 5.7666 3.7876 6.76 2.0559 1.1173 3.76 1.1883 6.4028 0.26702zm200.07-44.455c-3.8962-0.29214-8.388-0.69292-9.9819-0.89061-10.664-1.3227-22.611-2.2159-37.996-2.8409-9.7404-0.39565-24.81-1.011-33.488-1.3674-8.6778-0.3564-20.849-0.51521-27.048-0.35292-6.1984 0.16229-25.18 0.58591-42.182 0.94138-17.001 0.35547-34.244 0.9981-38.318 1.4281-5.2414 0.55326-22.275 0.75428-58.282 0.68776-48.843-0.0902-56.038-0.22304-56.865-1.0495-0.20568-0.20568 0.0617-0.80959 0.59411-1.342 0.80836-0.80836 4.3613-1.0152 21.535-1.2536 11.312-0.15704 21.437-0.30202 22.499-0.32218 1.1675-0.0221 1.619-0.23243 1.141-0.53143-0.57668-0.3607-0.19746-1.3761 1.3995-3.7475 2.4717-3.6703 5.5516-6.4804 8.4074-7.6712 2.3228-0.9685 22.776-0.7231 24.681 0.29613 1.6667 0.89201 17.136 2.6366 23.379 2.6366 5.7819 0 6.8342 0.81231 4.3153 3.3312l-1.4988 1.4988 1.61 0.20655c0.8855 0.11361 1.9421 0.6349 2.348 1.1584 0.65049 0.83904 1.4521 0.83235 6.762-0.0564 3.3132-0.55456 10.661-2.1552 16.328-3.5569 10.215-2.5267 18.572-3.9369 38.843-6.5548 8.8751-1.1462 10.889-1.2308 12.968-0.54486 1.3964 0.46085 3.5369 0.63905 4.9487 0.41199 3.2192-0.51772 3.0242-0.52324 8.284 0.23487 2.4794 0.35736 8.4202 0.96517 13.202 1.3507 18.937 1.5267 21.669 1.7933 24.199 2.3614 1.4441 0.32423 2.9782 0.80743 3.4092 1.0738 0.43097 0.26636 1.1857 0.15055 1.6772-0.25734 0.68168-0.56574 1.7059-0.48618 4.3188 0.33544 5.503 1.7304 7.3288 2.2273 8.1848 2.2273 0.44233 0 2.0156 0.81436 3.4962 1.8097 1.4806 0.99533 3.1777 1.7027 3.7714 1.572 0.59364-0.13077 2.2593 0.33234 3.7015 1.0291 1.4422 0.69679 2.7848 1.0037 2.9836 0.68204 0.64905-1.0502 1.4258-0.61695 1.8379 1.0251 0.32076 1.278 0.83311 1.6257 2.4848 1.6862 1.1444 0.0419 2.3705 0.003 2.7247-0.088 2.7752-0.70797 3.6902-0.74907 3.3194-0.14908-0.52885 0.85569 1.0184 1.4488 3.7792 1.4488 2.3026 0 3.593-1.0561 2.0254-1.6576-1.2918-0.4957-0.39251-3.7437 1.117-4.0345 0.62285-0.12 2.5934 0.25966 4.379 0.84369 3.173 1.0378 3.2801 1.0303 4.7329-0.33454 1.4582-1.3699 1.5778-1.3778 6.3025-0.41426 4.6476 0.94779 8.1543 2.5558 8.1543 3.7393 0 0.31346 0.44322 0.56993 0.98494 0.56993 0.54171 0 2.4514 1.1592 4.2438 2.576l3.2589 2.576-2.7948-0.0947c-1.5372-0.0521-5.9826-0.33376-9.8788-0.6259v-0.00005zm-249.62-7.2604c1.6583-0.91917 1.4055-1.2591-1.4432-1.9413-1.877-0.44948-4.9228 0.91735-4.9228 2.2092 0 0.91847 4.5728 0.72604 6.3659-0.26788zm220.83 1.0827c-1.9898-0.30338-2.9527-2.3409-1.7761-3.7586 0.42683-0.5143 0.99826-0.93509 1.2698-0.93509 0.94886 0 3.104 2.266 3.5219 3.703 0.43993 1.5129 0.43023 1.516-3.0156 0.9907zm55.88-12.924c-3.4792-7.9775-6.2691-13.774-6.5126-13.53-0.13271 0.13272 0.19787 1.9231 0.73463 3.9786 1.3782 5.2778 1.0436 7.7461-1.0836 7.9934-0.9266 0.10771-2.0327-0.24933-2.4938-0.805-0.4558-0.5492-1.3728-0.99855-2.0379-0.99855-0.85293 0-1.2091-0.46353-1.2091-1.5735 0-0.8821-0.61098-2.0014-1.3905-2.5474-1.1796-0.82624-1.2619-1.129-0.54249-1.9958 0.58834-0.70892 1.0536-0.81627 1.5193-0.35054 0.36921 0.36921 1.0175 0.67129 1.4407 0.67129 2.7863 0-6.3228-19.24-13.187-27.854-6.8262-8.5657-11.216-11.583-20.208-13.886-5.7838-1.4817-6.2707-1.2186-6.2742 3.3895-0.004 5.0268 4.4213 26.12 5.8646 27.954 0.67201 0.85431 1.2218 2.0847 1.2218 2.7342 0 1.3127 1.4421 1.0773 3.3345-0.54432 0.96591-0.82765 1.188-0.71815 2.093 1.0319 1.7576 3.3987 1.0941 4.5978-2.5442 4.5978-2.1412 0-2.361 0.74717-0.91795 3.12 1.5914 2.6169 1.7333 4.5189 0.24496 3.2837-0.55531-0.46086-1.5834-1.8729-2.2848-3.1378l-1.2751-2.2999 0.35416 2.6981c0.19892 1.5154 0.0707 2.8733-0.29243 3.0977-0.76243 0.47121-2.127-2.7493-1.6697-3.9408 0.17325-0.45147-0.25667-4.5311-0.95536-9.0659-0.6987-4.5348-1.3893-9.8389-1.5348-11.787-0.14542-1.9481-0.86015-6.44-1.5883-9.9819-2.287-11.125-1.8152-13.492 3.0257-15.179 1.5926-0.5552 2.8192-0.47597 5.7541 0.37171 7.776 2.2459 15.017 6.972 20.996 13.705 1.6608 1.87 3.0196 3.2338 3.0196 3.0308 0-1.2139-2.9059-5.691-5.277-8.1303-8.4442-8.6871-18.738-12.643-41.495-15.948-16.777-2.4363-27.491-3.2976-33.727-2.7114l-4.83 0.45402 4.508 0.47874c2.4794 0.26332 7.633 0.79474 11.452 1.1809 3.8195 0.3862 6.8237 0.82297 6.6761 0.97059-0.14763 0.14762-4.5204-0.0491-9.7172-0.4371-9.9901-0.74594-16.979-0.23603-21.256 1.5507-4.166 1.7407-8.0837 9.1332-15.155 28.597-3.7622 10.356-1.5582 20.023 5.1377 22.535 0.8855 0.33219 8.1304 1.0027 16.1 1.49l14.49 0.88599-23.506 0.322c-12.928 0.17709-23.914 0.46689-24.413 0.64399-1.4802 0.52565-3.0593-2.7988-2.1936-4.6183 1.4433-3.0337 3.303-8.064 4.721-12.77 1.8277-6.0652 7.2284-19.487 11.402-28.336 4.8693-10.324 10.036-14.775 18.713-16.121 11.297-1.7527 48.211 3.4138 65.508 9.1686 15.022 4.9979 21.395 10.617 29.137 25.692 3.9243 7.6406 14.869 33.188 15.117 35.286 0.36149 3.0624-1.147 1.8718-2.9939-2.3629zm-19.847-5.0765c0.44274-0.17866 1.1672-0.17866 1.61 0 0.44275 0.17865 0.0805 0.32482-0.80499 0.32482s-1.2477-0.14617-0.80499-0.32482zm-5.474-0.66142c0.61984-0.16198 1.6341-0.16198 2.254 0 0.61985 0.16198 0.1127 0.29452-1.127 0.29452s-1.7468-0.13254-1.127-0.29452zm-32.039-2.776c-0.21891-0.3542-0.21891-0.93379 0-1.288 0.21891-0.3542 0.11526-0.64399-0.23033-0.64399-0.34558 0-0.72493 0.25323-0.843 0.56275-0.11985 0.31422-4.9077 0.19039-10.841-0.28037-5.8442-0.46373-13.234-1.0252-16.422-1.2476-8.4984-0.59309-8.4676-0.58144-8.9151-3.373-0.21372-1.333-0.58293-3.438-0.82047-4.6777l-0.43189-2.254 1.5996 1.4644c2.5028 2.2912 5.2446 2.7859 11.434 2.0632 3.028-0.35352 10.065-0.82991 15.637-1.0586 8.825-0.36224 10.177-0.55979 10.486-1.532 0.34921-1.1003-3.6219-22.765-4.9271-26.881-1.1404-3.5956-2.3525-3.9318-11.826-3.2807-7.3185 0.50303-19.11 1.8683-25.155 2.9125l-1.9715 0.34054-0.80251-4.4022c-0.44138-2.4212-0.96217-5.0543-1.1573-5.8512-0.3466-1.4155-0.23041-1.4489 5.028-1.4468 11.893 0.005 30.273 2.406 33.702 4.4025 3.4195 1.9915 4.5313 5.1592 7.6872 21.901 3.169 16.811 3.5538 21.497 1.9532 23.783-1.0564 1.5083-2.5149 1.869-3.1835 0.78729zm-96.599-1.9521c-8.1607-1.6669-20.518-3.1615-28.77-3.4796-5.1976-0.20039-10.849-0.66078-12.558-1.0231-5.6492-1.1974-25.258-1.7233-28.868-0.77414-2.0632 0.54252-7.2687 0.84999-14.49 0.85587-10.507 0.009-16.241 0.58496-24.675 2.4804-1.7055 0.38331-3.3623 0.53534-3.6819 0.33784-0.31955-0.19749-0.40694-1.2897-0.19419-2.4271l0.38681-2.068-1.9754 2.6727c-2.2563 3.0528-3.1025 3.7202-3.6314 2.8644-0.95305-1.5421 28.968-44.214 31.961-45.58 0.81833-0.37367 2.792-1.7777 4.3858-3.1201 5.7124-4.811 14.981-7.7284 34.132-10.743 8.5895-1.3522 11.428-1.4703 35.42-1.4737 32.115-0.005 33.602 0.14214 37.643 3.7129l3.0145 2.6639-0.41271 4.8597c-0.61441 7.2348-6.0941 23.022-11.41 32.873-3.8385 7.1132-7.4252 14.246-8.1774 16.261-0.56863 1.5235-1.0007 1.7614-3.0919 1.702-1.337-0.0379-3.5901-0.30575-5.0069-0.59514zm-92.236-9.2656c4.5251-0.84261 8.6568-1.8883 9.1814-2.3237 0.77627-0.64426 1.4547-0.46034 3.6425 0.98751l2.6886 1.7792 1.2433-1.5356 1.2433-1.5356 19.408-0.32416c20.604-0.34412 22.198-0.17286 25.333 2.7213 1.3639 1.2594 3.4137 1.2136 3.4137-0.0763 0-0.60396-1.9638-2.3011-4.2039-3.6328-1.0639-0.63252-1.0505-1.1212 0.25223-9.2188 0.75661-4.703 1.3756-9.4108 1.3756-10.462 0-3.0326-1.649-6.1979-3.8114-7.3161-2.8712-1.4848-13.552-2.8421-26.264-3.3375l-11.077-0.43177-0.63108 1.549c-0.3471 0.85197-1.0986 5.0266-1.6701 9.277-0.57145 4.2504-1.3161 9.4905-1.6547 11.645-0.87582 5.5718-0.87441 5.5781 1.1553 5.1501 3.655-0.77066 16.013-2.4413 17.871-2.416 1.9052 0.026 5.6793 0.52301 8.5593 1.1273 0.81143 0.17025 1.3283 0.54741 1.1486 0.83814-0.34565 0.55928-16.689 1.6637-24.842 1.6787-2.6565 0.005-5.0429 0.2987-5.3031 0.6529-0.85989 1.1704-0.5029-5.6522 0.80668-15.417 0.74683-5.5686 1.0506-9.8605 0.72129-10.19-0.32934-0.32934-1.7563-0.25445-3.3879 0.17782-2.0611 0.54607-3.771 1.7314-6.3609 4.4094-4.3409 4.4887-13.843 18.371-13.241 19.345 0.24066 0.3894 1.797 0.72837 3.4585 0.75326 1.6615 0.0249 3.5941 0.26918 4.2946 0.54286 1.2448 0.48632 1.2421 0.51449-0.11866 1.2427-0.76576 0.40982-2.3532 0.75863-3.5276 0.77514-2.9571 0.0415-9.1693 2.7002-9.4262 4.0341-0.26477 1.3748-0.15651 1.3696 9.7224-0.46992v0.00005zm5.3081-5.5073c-0.47041-0.76113 2.5044-1.5912 3.8509-1.0745 0.53209 0.20417 0.96743 0.67012 0.96743 1.0354 0 0.84246-4.3002 0.87735-4.8183 0.0391zm46.839-1.0922c-0.44274-0.1771-0.80499-0.6078-0.80499-0.95712 0-0.82329 2.6197-0.42353 2.6498 0.40435 0.0275 0.75774-0.74998 0.99069-1.8448 0.55277zm39.853 3.401c0.9332-1.7305 2.0708-4.2798 2.528-5.6651 0.75812-2.2971 0.71594-2.634-0.47953-3.8295-1.7029-1.703-8.053-2.3429-12.075-1.2169-4.7832 1.3392-10.024 6.6752-10.024 10.206 0 1.7112 2.5833 2.6484 9.0704 3.2905 8.8347 0.87443 9.0342 0.82383 10.98-2.7847zm8.6919-0.6329c1.5473-1.5473 2.8132-3.1345 2.8132-3.5271 0-0.39264-0.70505-1.1759-1.5668-1.7405-1.2466-0.81678-1.8501-0.87501-2.9527-0.28489-1.4329 0.76688-3.8134 5.2563-3.8383 7.2388-0.0256 2.0403 2.6237 1.2346 5.5446-1.6862zm-26.118-7.2314c2.6945-2.8868 6.2855-4.3111 11.682-4.6334 5.7297-0.34221 9.972 0.75627 14.811 3.8352 3.3241 2.1149 3.8997 2.0286 5.3646-0.80424 1.1708-2.2642 0.83042-3.016-2.6045-5.7522-5.41-4.3095-17.549-9.0045-23.281-9.0045-2.4468 0-3.2742 0.3451-5.0251 2.096-2.1262 2.1262-2.2466 2.5333-3.9033 13.199-0.51028 3.2852 0.53327 3.6608 2.9568 1.0643zm121.13 18.588c-0.0619-1.1455-0.82156-5.4925-1.6882-9.6599-2.4474-11.77-4.3172-22.7-4.0861-23.887 0.4075-2.0932 6.395 29.892 6.1382 32.79-0.19187 2.1659-0.2782 2.3453-0.36402 0.75649zm-48.057-0.71224c-0.24969-0.78672-1.2149-1.409-2.5838-1.6658-1.2018-0.22547-2.2787-0.62423-2.393-0.88613-0.11433-0.2619-3.9028-0.36782-8.4188-0.23539-6.4858 0.19021-8.2109 0.42984-8.2109 1.1406 0 2.3018-4.0952-0.27437-5.8244-3.664-1.0319-2.0226-1.1426-2.9604-0.65354-5.5366 0.8642-4.5525 3.9105-12.5 5.5609-14.507 0.78932-0.96006 1.9519-3.1335 2.5835-4.83 0.63159-1.6964 2.0129-4.6434 3.0695-6.5488 1.6118-2.9066 2.474-3.7089 5.3546-4.9828 4.1432-1.8323 4.5682-3.1444 0.85727-2.6467-1.4169 0.19005-2.4189 0.0912-2.2268-0.21969 0.53025-0.85797 5.5453-2.0563 6.0772-1.4521 0.4035 0.45832 8.2844 42.22 8.594 45.54 0.1546 1.6581-1.2894 2.0579-1.7857 0.49431zm73.383-5.255c-0.21891-0.3542 0.19868-0.644 0.92798-0.644s1.326 0.2898 1.326 0.644c0 0.35419-0.41759 0.64399-0.92798 0.64399-0.5104 0-1.1071-0.2898-1.326-0.64399zm-54.244-42.95c0.62658-0.16328 1.496-0.15255 1.932 0.0239 0.436 0.17641-0.0766 0.31-1.1392 0.29688-1.0626-0.0131-1.4193-0.15746-0.79273-0.32074v-0.00004zm-147.93-6.5691c-1.4277-2.3101 19.426-7.7092 37.631-9.7429 11.33-1.2657 30.858-1.8311 43.089-1.2476 6.585 0.31416 19.652 0.88735 29.039 1.2738 12.173 0.50109 19.743 1.1461 26.404 2.2494 5.1359 0.85081 12.381 1.8712 16.1 2.2674 8.1657 0.87008 12.48 1.652 14.203 2.5742 2.5227 1.3501 0.55208 1.7519-4.053 0.82631-19.242-3.8676-38.638-5.5211-48.836-4.1634-3.2437 0.43186-6.7477 1.2248-7.7867 1.7621-1.7165 0.88763-2.4601 0.85887-8.1374-0.31477-16.484-3.4078-48.881-3.4137-72.58-0.0132-8.3432 1.1972-21.114 3.7775-23.602 4.7687-0.58402 0.23272-1.2463 0.12467-1.4717-0.24008v-0.00004z" fill="url(#linearGradient9865)"/>
  </g>
  <g id="layer4" transform="translate(114.44 397.37)">
    <path id="path3227" fill="url(#linearGradient9905)" d="m33.198-76.258c1.0472 0-4.5357-8.3037-4.5357-6.6395 0 1.0405 0.98334 1.4798 5.957 2.6612 3.2763 0.77822 7.9855 1.6989 10.465 2.046 5.8881 0.82423 14.95 0.83159 15.456 0.0126 0.21891-0.3542 1.3228-0.65427 2.453-0.66682 1.1302-0.0126 2.7427-0.40411 3.5833-0.87013l1.5284-0.8473-1.5284-0.40907c-0.84059-0.22499-3.1222-0.42565-5.0703-0.44591-1.9481-0.0203-4.8461-0.332-6.44-0.69276-1.5939-0.36075-5.6384-1.05-8.9878-1.5316-5.7349-0.82465-7.7561-1.7712-7.7561-3.632 0-0.80539 2.493-1.3216 4.025-0.83335 0.79694 0.25396 6.2306 0.58141 12.075 0.72768 5.8443 0.14626 15.842 0.41812 22.218 0.60414 6.3756 0.18601 15.359 0.43572 19.964 0.55491 12.863 0.33296 24.442 0.7881 39.606 1.5568 14.61 0.74068 27.786 0.79787 28.816 0.12508 2.4614-1.6076 2.9475-9.771 0.74829-12.567-0.98571-1.2531-1.8934-1.6934-3.381-1.6399-156.08-10.619-77.537 2.1134-22.73-20.86 1.1112-0.51333 2.6927-1.1364 3.5143-1.3846 0.83391-0.25191 2.5263-2.0617 3.8309-4.0966 5.1612-8.0505 2.7188-18.271-4.8198-20.169-3.1828-0.80144-3.0594-1.8298 0.21943-1.8298 2.8511 0 4.2889 0.77436 6.9908 3.765 1.7085 1.8911 2.9237 2.5469 5.8616 3.1631 2.469 0.51787 3.9635 0.56388 4.4769 0.1378 0.52177-0.43303 1.3706-0.3267 2.6284 0.32927 2.6404 1.377 4.8049 1.2498 5.2119-0.30632 0.32209-1.2316 0.41477-1.2164 2.3106 0.3788 1.6568 1.3942 2.3453 1.5863 4.2731 1.1927 1.2639-0.25808 5.7756-0.50099 10.026-0.5398 12.649-0.11551 15.724 1.2508 10.107 4.4908-6.47 3.7322-13.335 10.545-14.977 14.863-0.82938 2.1814-0.43058 2.5006 1.9122 1.5302 2.5181-1.043 3.271-0.47144 2.8441 2.1593-0.21507 1.3253-0.0551 2.3429 0.41389 2.6328 1.5834 0.97861 6.7949-1.7888 11.077-5.882 2.714-2.5944 5.9123-4.8709 8.6939-6.1884 4-1.8946 4.9572-2.0842 10.518-2.0842 5.4982 0 6.4978 0.19248 9.8678 1.9 7.45 3.7748 15.005 14.372 17.469 24.504 1.3645 5.61 2.3783 14.829 2.7531 25.034l0.3281 8.9343 12.966-0.42428c82.239-2.6912 98.482-3.509 100.01-5.0353 0.6154-0.61539 1.1599-2.4272 1.2978-4.3182 0.37246-5.1087 1.9166-13.205 2.9723-15.584 0.5286-1.1914 1.3234-3.5549 1.7662-5.2521 0.44281-1.6972 1.8065-4.3973 3.0304-6.0002 2.0552-2.6916 2.3105-2.8372 3.3405-1.9051 0.61335 0.55507 1.282 1.0092 1.486 1.0092 0.20395 0 1.2918-1.6319 2.4174-3.6264 2.5701-4.554 7.292-9.6447 10.432-11.246 1.4309-0.73001 3.7302-1.227 5.6765-1.227 10.529 0 18.746 12.905 19.766 31.041 0.32419 5.7653-2.7372 4.2044-3.6247 5.5589-0.62079 0.94744-0.63917 1.6641-0.63917 3.5124 0 8.0901-3.9489 22.639-7.8889 28.772-1.0525 1.6384-3.5253 5.1922-4.9797 6.609l-3.6984-2.4836-39.011-17.87c-113.68-2.312-108.47 23.832-168.17 22.359-1.3-46.182-159.63-8.677-149.15-33.076zm182.65 26.966c6.5215-2.44 12.648-9.4812 15.098-17.352 1.7856-5.7371 1.6512-14.421-0.309-19.974-2.6676-7.5566-7.6101-13.444-13.867-16.516-3.1612-1.5525-4.3512-1.769-9.7201-1.769-5.557 0-6.4293 0.17251-9.5139 1.8815-3.7056 2.053-6.9035 4.9054-9.22 8.2238-1.3828 1.9808-1.2712 1.9341 1.5872-0.66381 7.1475-6.4961 14.856-7.1152 23.564-1.8925 7.0267 4.2142 11.285 12.568 11.279 22.125-0.003 4.7056-0.23321 5.6673-2.4066 10.065-3.8607 7.8116-10.054 12.486-17.461 13.178-3.9217 0.36621-4.5891 0.23168-8.5682-1.7273-2.3734-1.1684-5.612-3.4559-7.1969-5.0833-3.5582-3.6536-2.339-1.0704 1.4256 3.0204 6.752 7.3372 16.413 9.8125 25.309 6.4842zm1.0291-5.7015c6.4074-5.7599 9.0367-12.231 9.0269-22.218-0.007-7.4621-1.5999-11.835-6.1054-16.765-3.7381-4.0901-7.4376-6.4474-11.139-7.0976-4.6698-0.82038-4.801-1.6476-0.22472-1.4166 8.2929 0.41852 15.894 6.4242 19.327 15.27 1.9658 5.0653 2.3785 14.756 0.83705 19.656-2.0632 6.5594-7.2702 12.576-12.856 14.854l-2.576 1.0508 3.7093-3.3345zm176.88 2.0937c2.4715-1.8109 5.6342-6.8061 6.7331-10.634 3.4033-11.856 2.514-24.258-2.2344-31.16-3.3442-4.8605-6.0121-5.7726-10.743-3.6725-1.9712 0.87513-2.1667 1.115-1.1063 1.3573 0.7084 0.16189 1.7227 0.6254 2.254 1.03 0.81772 0.62276 0.84329 0.57832 0.16659-0.28955-1.0135-1.2998-0.44116-1.8727 1.8709-1.8727 1.1906 0 2.7189 0.80959 4.4064 2.3342 3.7473 3.3854 5.43 9.1424 5.4529 18.655 0.0169 7.0714-0.43063 9.724-2.9805 14.757-2.8164 5.5589-6.6975 8.0466-8.6449 8.0428-0.95261-0.002-0.77624-0.2836 0.76636-1.2242 4.5939-2.8013 6.6593-8.5855 7.1504-20.025 0.36834-8.5798-0.22227-11.821-2.2071-12.112-0.8182-0.11989-1.737 0.35671-2.3358 1.2116-1.442 2.0587-3.1418 1.1889-2.882-1.4746 0.1774-1.8189-0.0792-2.2183-2.0512-3.1932-3.181-1.5726-4.8538-1.4363-6.3932 0.52069-1.8263 2.3218-1.7497 3.5838 0.18797 3.0975 2.1164-0.53118 2.6784 1.2713 1.1907 3.8186-1.3537 2.3178-3.3223 3.0393-3.4249 1.2552-0.13763-2.3931-1.767 4.094-1.8079 7.1977-0.054 4.0978 0.59196 8.0499 1.3157 8.0499 0.30786 0 0.55974-0.45485 0.55974-1.0108 0-1.708 2.7932-0.82436 3.4658 1.0964 0.86725 2.4766 0.12389 3.7783-2.1576 3.7783-2.1852 0-2.5836 1.2086-0.9402 2.852 1.6177 1.6177 5.6478 1.2857 7.9545-0.65524 1.5059-1.2672 1.9814-2.1992 1.9814-3.8842 0-2.1058 1.0501-3.2606 2.4736-2.7203 0.89482 0.33969-0.76159 5.9592-2.5253 8.5674-0.85705 1.2674-2.6375 2.8061-3.9566 3.4193-1.3191 0.61323-2.4058 1.3366-2.415 1.6074-0.009 0.27085 0.92523 1.083 2.0764 1.8048 2.4997 1.5674 6.2484 1.3435 8.7992-0.52548zm-181.57-5.8736c4.0127-2.4025 6.7071-6.2028 7.9742-11.247 2.1073-8.3894 0.99145-13.999-3.919-19.699-3.0519-3.543-5.7558-5.0014-11.124-5.9997-2.9073-0.54066-4.4439-0.51818-6.4905 0.095-3.0486 0.9134-8.4849 5.6643-9.491 8.2945-1.1693 3.0569-2.7662 10.437-2.39 11.045 0.19939 0.32263 0.0518 1.2686-0.32796 2.1021-0.54461 1.1953-0.4151 2.1579 0.61292 4.5562 0.71688 1.6724 1.5391 3.0408 1.8272 3.0408 0.28807 0 1.0822-0.65205 1.7648-1.449l1.2411-1.449 0.51114 2.459c0.31684 1.5243 0.24717 2.9523-0.18327 3.7566-0.54795 1.0239-0.44621 1.5718 0.4824 2.5979 4.0669 4.4939 13.622 5.4227 19.511 1.8967v-0.00001zm-9.6377-3.3042c0-0.3542 0.3069-0.64399 0.682-0.64399s0.50289 0.28979 0.28399 0.64399c-0.21891 0.3542-0.52581 0.644-0.68201 0.644-0.15619 0-0.28398-0.2898-0.28398-0.644zm8.3719-0.96599c0-1.672 1.5516-2.2695 2.0902-0.80499 0.4433 1.2054-0.14665 2.415-1.1779 2.415-0.54382 0-0.91233-0.65031-0.91233-1.61zm-15.027-0.75133c-0.23613-0.23613-0.42933-1.0606-0.42933-1.8322 0-0.77157-0.57959-1.9274-1.288-2.5685-1.2739-1.1528-1.784-3.542-0.75625-3.542 0.70272 0 2.9792 2.5255 3.9184 4.347 0.53904 1.0454 0.55515 1.8077 0.0578 2.737-0.75927 1.4187-0.87594 1.4854-1.5026 0.85866h0.00001zm-3.8417-14.146c-1.0141-1.0141-0.41219-2.2529 0.99739-2.0527 0.79694 0.11318 1.449 0.63652 1.449 1.163 0 1.0232-1.6961 1.64-2.4464 0.88974zm22.518-6.4622c-0.76427-0.76426-0.45502-2.643 0.49505-3.0076 1.0541-0.4045 1.5798 0.65163 1.1497 2.3099-0.30444 1.1738-0.91119 1.4312-1.6447 0.69766zm-19.749-1.4773c0-0.34023 0.47239-0.99228 1.0498-1.449 0.57737-0.45671 2.0264-1.8289 3.22-3.0492l2.1702-2.2188v1.7032c0 1.0898-0.75374 2.4096-2.093 3.6648-2.0239 1.8969-4.347 2.6178-4.347 1.349zm-0.85866-3.0307c-0.23614-0.23613-0.42933-0.98188-0.42933-1.6572 0-1.7551 2.1996-1.1791 2.4598 0.64413 0.19819 1.3891-1.0377 2.0058-2.0304 1.0131zm12.826-1.4162c-0.27741-0.44886-0.33047-0.99003-0.11791-1.2026 0.57636-0.57635 1.2048 0.27132 0.89348 1.2052-0.21814 0.65441-0.36983 0.6539-0.77557-0.003v0.00039zm-21.964 4.5825c0.27357-1.1511 0.33951-2.093 0.14652-2.093-0.98155 0-2.281 8.97-1.8659 12.88l0.44442 4.186 0.38878-6.44c0.21384-3.542 0.61263-7.3818 0.8862-8.5329zm-30.412-18.204c2.5662-2.5662 2.584-2.6176 2.1587-6.2365-0.48771-4.1497-1.1465-5.1867-4.072-6.4096-4.696-1.9629-9.3477-0.006-10.929 4.5967-1.1168 3.2512-0.58963 5.6411 1.8597 8.4308 1.7221 1.9613 2.2954 2.2062 5.166 2.2062 2.911 0 3.4839-0.25489 5.8166-2.5875zm-13.365-10.292c0.50372-0.81504-0.34881-0.81504-1.61 0-0.83249 0.53799-0.81549 0.62564 0.12299 0.63414 0.59894 0.005 1.2681-0.27994 1.487-0.63414zm114.6 35.209c-2.6669-1.2315-5.2445-4.438-6.1962-7.7078-0.54944-1.8878-0.74645-7.7777-0.65064-19.452 0.12101-14.745-0.19814-22.794-1.4809-37.352l-0.3405-3.864 1.2752 2.6447c2.1984 4.5592 3.2634 13.187 3.4178 27.688 0.0788 7.4022 0.009 16.791-0.15565 20.864-0.28064 6.9537-0.20198 7.5829 1.288 10.304 3.033 5.5389 0.95538 5.323 44.551 4.6286 20.998-0.33447 38.296-0.50225 38.439-0.37285 0.14293 0.1294-0.72646 0.63558-1.932 1.1248-1.6759 0.68015-8.3318 0.98437-28.274 1.2923-14.345 0.22151-31.008 0.56131-37.03 0.75513-8.6375 0.27801-11.362 0.161-12.912-0.5545zm155.01-19.109c0-0.88549 0.14618-1.2477 0.32483-0.80499 0.17865 0.44275 0.17865 1.1672 0 1.61-0.17865 0.44275-0.32483 0.0805-0.32483-0.805zm-377.34-20.398c-0.52908-0.21248 0.4339-1.53 2.6692-3.6521 3.7958-3.6035 4.9105-6.2108 4.9168-11.5 0.002-1.6658 0.3345-3.7549 0.73894-4.6426 1.0043-2.2041-0.55227-4.5016-4.2754-6.3104-3.0148-1.4647-3.2459-2.7992-0.38565-2.2272 2.099 0.4198 9.5098 4.5391 11.493 6.3882 1.6748 1.5618 1.8078 2.8692 0.55167 5.4215-0.49353 1.0028-2.015 4.2631-3.381 7.2453-3.0899 6.7456-5.929 9.7324-9.1834 9.6609-1.2739-0.0279-2.6886-0.20041-3.1439-0.38322zm15.072-31.015c-0.61273-0.11829-1.0022-0.55299-0.8656-0.96599 0.34371-1.0389 14.455-1.5139 49.732-1.6741 29.99-0.13616 48.334-0.78349 54.363-1.9183 2.9798-0.56093 3.5989-0.50351 4.2557 0.39468 0.70662 0.96635 1.1762 0.96999 5.8244 0.0451 3.588-0.71395 5.531-0.82138 6.6922-0.37004 0.90001 0.34979 4.2356 0.61695 7.4124 0.5937 4.8265-0.0354 6.0785-0.26591 7.6159-1.4026 1.7614-1.3023 1.8933-1.312 3.0927-0.2265 1.0465 0.94708 2.4225 1.1239 8.3553 1.0735 3.9064-0.0332 7.4542-0.35217 7.884-0.70891 1.2143-1.0078 8.9762-1.2218 9.298-0.25645 0.19696 0.5909 2.7836 0.80101 9.861 0.80101h9.594l0.40511-1.6141c0.2228-0.88773 0.61484-3.1337 0.87118-4.991l0.46608-3.3769 0.80454 1.932c1.2275 2.9478 1.0994 7.1826-0.26297 8.6879-1.9766 2.1841-5.2502 2.5748-21.579 2.5754-8.6778 0.00032-26.645 0.30362-39.928 0.67401-22.471 0.62661-121.41 1.2076-123.89 0.72749v-0.00002zm284.73-3.0512c-0.97405-0.52843-1.771-1.2103-1.771-1.5153 0-1.0677 2.1173-1.3527 4.269-0.57461 2.3091 0.83499 2.8325 2.0666 1.1523 2.7114-1.3738 0.52718-1.6059 0.48768-3.6503-0.62145zm-90.309-1.0806c-2.4584-10.639-2.5365-11.428-1.0401-10.503 0.77781 0.48071 3.2824 8.5482 3.2824 10.573 0 1.8423-1.8135 1.7862-2.2422-0.0694v-0.00003zm80.228-1.3738c-0.57009-0.68692-0.51444-0.97707 0.24315-1.2678 0.54033-0.20734 0.98243-0.26489 0.98243-0.12788s0.1759 0.70752 0.39089 1.2678c0.48165 1.2552-0.60929 1.3415-1.6165 0.12788zm53.538-16.497c-6.3916-14.509-7.2227-15.503-4.0366-4.83 0.74012 2.4794 1.2656 5.5223 1.1677 6.762-0.14917 1.8888-3.0632 1.795-4.4585 1.9572-0.9266 0.10771 1.727-1.3936 1.2658-1.9492-0.4558-0.5492-5.5052-13.409-8.9033-19.797-3.0971-5.8221-1.3962-5.9633-10.427-16.813-4.3161-5.1852-8.4376-7.9863-17.429-10.29-5.7838-1.4817-6.2707-1.2186-6.2742 3.3895-0.004 5.0268 4.4213 26.12 5.8646 27.954 0.67201 0.85431 0.0776-1.6749 0.0776-1.0254 0 1.3127 17.127 4.5371 22.95 0.43647 4.8852-3.4402 11.526 14.462-2.023 14.961-5.6299-0.48076-14.286-2.183-15.778-3.4212-2.7-2.2408-5.5114-2.4989-9.8192-24.653-3.029-15.578-3.0904-18.607-0.41721-20.595 6.2892-4.6783 24.439 5.129 32.456 17.537 3.2708 5.0626 3.3837 3.4948 0.14129-1.963-6.7242-11.319-14.933-16.876-31.538-21.352-3.3537-0.904-8.1263-1.7677-10.606-1.9192-2.4794-0.15156-9.2896-0.93434-15.134-1.7395-7.6508-1.054-13.962-1.4797-22.54-1.5203l-11.914-0.0564-3.703 2.031c-2.4946 1.3683-3.703 1.7513-3.703 1.1739 0-1.6728 4.5292-4.6414 8.2087-5.3803 11.404-2.2902 42.373 1.5293 64.885 8.0023 12.321 3.5427 21.001 9.2593 26.392 17.381 5.0721 7.6414 20.571 42.164 20.176 44.941-0.1271 0.89257-1.902-2.4614-4.8807-9.2233v0.00006zm-138.35-1.5398c-0.39584-1.0315 5.2478-18.87 8.8583-27.998 1.8182-4.5974 4.896-10.74 4.076-8.1356-0.223 0.70839-2.7183 8.2431-5.5452 16.744-2.8268 8.5007-5.1688 16.254-5.2044 17.229-0.0805 2.2065-1.5931 3.7024-2.1847 2.1607zm48.829-7.143c-0.54544-0.7204-2.844-5.5839 0.34727-2.6884 10.788 1.3325 16.226 0.0963 22.004-0.63002 5.7777-0.72635 12.302-1.8675 12.611-2.8398 0.34921-1.1003-3.6219-22.765-4.9271-26.881-1.1404-3.5956-2.3525-3.9318-11.826-3.2807-7.3185 0.50303-19.11 1.8683-25.155 2.9125l-1.9715 0.34054-0.80251-4.4022c-0.44138-2.4212-0.96217-5.0543-1.1573-5.8512-0.3466-1.4155-0.23041-1.4489 5.028-1.4468 11.893 0.005 30.273 2.406 33.702 4.4025 3.4195 1.9915 4.5313 5.1592 7.6872 21.901 3.169 16.811 6.2532 22.496-1.643 23.456-6.0815-0.66802-27.002 4.1126-33.896-4.9925zm-180.38 2.0818c1.061-1.9976 11.393-17.461 16.889-25.277 8.4676-12.042 13.218-18.11 14.709-18.791 0.81833-0.37367 2.792-1.7777 4.3858-3.1201 5.7076-4.8069 15.252-7.8135 33.81-10.65 16.769-2.5634 47.805-2.2028 64.364 0.74796 10.876 1.9379 13.524 7.3432 9.455 19.296-5.3061 15.585-10.09 25.614-14.488 30.372-1.5467 1.6734-3.1866 3.9918-3.6443 5.152-1.1762 2.9816-1.5872 3.297-3.6284 2.7847-1.5859-0.39803-1.6695-0.53213-0.6776-1.0872 2.2145-1.2393 0.29728-1.842-5.8566-1.8412-3.4325 0.00045-8.6231-0.33205-11.535-0.73889-3.979-0.556-5.5145-0.55641-6.1829-0.002-1.5835 1.3142-6.3631 1.5346-10.356 0.47756-2.0902-0.55337-3.9375-1.1431-4.1049-1.3106-0.16746-0.16745-0.81487 0.32586-1.4387 1.0962-0.98139 1.212-1.2776 1.2818-2.1978 0.51803-0.58497-0.48549-0.98044-1.4904-0.87881-2.2331 0.17028-1.2444-0.21962-1.3844-4.9672-1.7831-13.43-1.1279-28.139-0.44398-26.465 1.2306 0.20436 0.20436 0.0488 0.76049-0.34569 1.2358-0.93461 1.1261-4.7221 1.1091-6.5392-0.0294-0.78448-0.49154-2.5322-1.0879-3.8839-1.3252-2.3679-0.4157-2.4303-0.38058-1.7113 0.96285 0.89233 1.6673-0.0167 2.9291-1.6569 2.2997-0.69851-0.26805-0.96363-0.86933-0.74757-1.6955 0.23526-0.89966 0.0177-1.2764-0.73193-1.2674-2.5392 0.0303-10.481 1.4236-17.051 2.9913l-7.1023 1.6948-1.5958-1.8552c-1.492-1.7345-1.6417-1.7781-2.3028-0.66968-1.3773 2.3093-3.0627 4.2659-3.6744 4.2659-0.35287 0-0.28838-0.6242 0.1497-1.449v0.00028zm25.857-7.1927c4.5251-0.84261 8.6568-1.8883 9.1814-2.3237 0.77627-0.64426 1.4547-0.46034 3.6425 0.98751l2.6886 1.7792 1.2433-1.5356 1.2433-1.5356 19.408-0.32416c20.604-0.34412 22.198-0.17286 25.333 2.7213 1.3639 1.2594 3.4137 1.2136 3.4137-0.0763 0-0.60396-1.9638-2.3011-4.2039-3.6328-1.0639-0.63252-1.0505-1.1212 0.25223-9.2188 0.75661-4.703 1.3756-9.4108 1.3756-10.462 0-3.0326-1.649-6.1979-3.8114-7.3161-2.8712-1.4848-13.552-2.8421-26.264-3.3375l-11.077-0.43177-0.63108 1.549c-0.3471 0.85197-1.0986 5.0266-1.6701 9.277-0.57145 4.2504-1.3161 9.4905-1.6547 11.645-0.87582 5.5718-0.87441 5.5781 1.1553 5.1501 3.655-0.77066 16.013-2.4413 17.871-2.416 1.9052 0.026 5.6793 0.52301 8.5593 1.1273 0.81143 0.17025 1.3283 0.54741 1.1486 0.83814-0.34565 0.55928-16.689 1.6637-24.842 1.6787-2.6565 0.005-5.0429 0.2987-5.3031 0.6529-0.85989 1.1704-0.5029-5.6522 0.80668-15.417 0.74683-5.5686 1.0506-9.8605 0.72129-10.19-0.32934-0.32934-1.7563-0.25445-3.3879 0.17782-2.0611 0.54607-3.771 1.7314-6.3609 4.4094-4.3409 4.4887-13.843 18.371-13.241 19.345 0.24066 0.3894 1.797 0.72837 3.4585 0.75326 1.6615 0.0249 3.5941 0.26918 4.2946 0.54286 1.2448 0.48632 1.2421 0.51449-0.11866 1.2427-0.76576 0.40982-2.3532 0.75863-3.5276 0.77514-2.9571 0.0415-9.1693 2.7002-9.4262 4.0341-0.26477 1.3748-0.15651 1.3696 9.7224-0.46992v0.00005zm5.3081-5.5073c-0.47041-0.76113 2.5044-1.5912 3.8509-1.0745 0.53209 0.20417 0.96743 0.67012 0.96743 1.0354 0 0.84246-4.3002 0.87735-4.8183 0.0391zm46.839-1.0922c-0.44274-0.1771-0.80499-0.6078-0.80499-0.95712 0-0.82329 2.6197-0.42353 2.6498 0.40435 0.0275 0.75774-0.74998 0.99069-1.8448 0.55277zm39.853 3.401c0.9332-1.7305 2.0708-4.2798 2.528-5.6651 0.75812-2.2971 0.71594-2.634-0.47953-3.8295-1.7029-1.703-8.053-2.3429-12.075-1.2169-4.7832 1.3392-10.024 6.6752-10.024 10.206 0 1.7112 2.5833 2.6484 9.0704 3.2905 8.8347 0.87443 9.0342 0.82383 10.98-2.7847zm8.6919-0.6329c1.5473-1.5473 2.8132-3.1345 2.8132-3.5271 0-0.39264-0.70505-1.1759-1.5668-1.7405-1.2466-0.81678-1.8501-0.87501-2.9527-0.28489-1.4329 0.76688-3.8134 5.2563-3.8383 7.2388-0.0256 2.0403 2.6237 1.2346 5.5446-1.6862zm-26.118-7.2314c2.6945-2.8868 6.2855-4.3111 11.682-4.6334 5.7297-0.34221 9.972 0.75627 14.811 3.8352 3.3241 2.1149 3.8997 2.0286 5.3646-0.80424 1.1708-2.2642 0.83042-3.016-2.6045-5.7522-5.41-4.3095-17.549-9.0045-23.281-9.0045-2.4468 0-3.2742 0.3451-5.0251 2.096-2.1262 2.1262-2.2466 2.5333-3.9033 13.199-0.51028 3.2852 0.53327 3.6608 2.9568 1.0643zm73.077 17.876c-0.24969-0.78672-1.2149-1.409-2.5838-1.6658-1.2018-0.22547-2.2787-0.62423-2.393-0.88613-0.11433-0.2619-3.9028-0.36782-8.4188-0.23539-6.4858 0.19021-8.2109 0.42984-8.2109 1.1406 0 2.3018-4.0952-0.27437-5.8244-3.664-1.0319-2.0226-1.1426-2.9604-0.65354-5.5366 0.8642-4.5525 3.9105-12.5 5.5609-14.507 0.78932-0.96006 1.9519-3.1335 2.5835-4.83 0.63159-1.6964 2.0129-4.6434 3.0695-6.5488 1.6118-2.9066 2.474-3.7089 5.3546-4.9828 4.1432-1.8323 4.5682-3.1444 0.85727-2.6467-1.4169 0.19005-2.4189 0.0912-2.2268-0.21969 0.53025-0.85797 5.5453-2.0563 6.0772-1.4521 0.4035 0.45832 8.2844 42.22 8.594 45.54 0.1546 1.6581-1.2894 2.0579-1.7857 0.49431zm-55.463-0.41117c-1.0896-0.8243-1.1081-0.94136-0.152-0.95934 0.59895-0.0113 1.28 0.2886 1.5135 0.66636 0.70153 1.1351-0.038 1.2942-1.3615 0.29298zm-73.326-54.363c-1.4277-2.3101 19.426-7.7092 37.631-9.7429 11.33-1.2657 30.858-1.8311 43.089-1.2476 6.585 0.31416 19.652 0.88735 29.039 1.2738 12.173 0.50109 19.743 1.1461 26.404 2.2494 5.1359 0.85081 12.381 1.8712 16.1 2.2674 8.1657 0.87008 12.48 1.652 14.203 2.5742 2.4575 1.3152 0.6057 1.7554-3.729 0.88635-12.003-2.4065-19.489-3.4649-29.472-4.1673-12.132-0.85352-19.419-0.55863-25.811 1.0446-3.9281 0.98514-4.6764 0.98766-9.8281 0.033-16.715-3.0972-49.829-2.9601-72.552 0.30024-8.3432 1.1972-21.114 3.7775-23.602 4.7687-0.58402 0.23272-1.2463 0.12468-1.4717-0.24008v0.00007z"/>
  </g>
  <g id="layer7" transform="translate(114.44 397.37)">
    <path id="path9036-1" d="m192.24-35.473c-61.559-2.8675-86.693-4.6804-84.203-6.0735 1.0782-0.60342 30.88-1.8246 49.75-2.0385 14.104-0.15993 13.511 0.24768 9.3537-6.4301-1.3739-2.2069-3.2756-5.9717-4.226-8.3662l-1.728-4.3536-28.417 0.16765-28.417 0.16764-2.6623 4.0694c-1.4643 2.2382-3.6259 5.0636-4.8038 6.2788-2.1132 2.1802-3.239 3.0089-10.317 7.5931l-3.5979 2.3303-17.654-0.69647-17.654-0.69647-3.4419-2.0334c-7.265-4.292-14.774-14.17-17.751-23.353-1.2824-3.9548-2.2257-11.88-1.8164-15.26 0.28486-2.3519 0.34388-2.4046 1.5102-1.3492 0.66754 0.60413 2.2678-1.7466 2.2678-1.1013 0 2.1956 0.0938 5.4878 10.238 6.7754 10.744 1.3637 21.243 2.6843 21.873 1.6647 0.21891-0.3542 1.3228-0.65427 2.453-0.66682 1.1302-0.0126 2.7427-0.40411 3.5833-0.87013l1.5284-0.8473-1.5284-0.40907c-0.84059-0.22499-3.1222-0.42565-5.0703-0.44591-1.9481-0.0203-4.8461-0.332-6.44-0.69276-1.5939-0.36075-5.6384-1.05-8.9878-1.5316-5.8549-0.8419-7.7561-1.765-7.7561-3.7658 0-0.37619 3.4058-0.45195 8.8549-0.19699 4.8702 0.22787 18.853 0.71161 31.073 1.075 12.22 0.36338 29.897 0.94087 39.284 1.2833 32.471 1.1847 44.854 1.4684 46.463 1.0646 2.1449-0.53834 3.1246-2.8946 3.1246-7.5148 0-3.0146-0.30004-4.1466-1.455-5.4893l-1.455-1.6915-25.11-0.58555c-61.935-1.4443-102.53-2.9023-105.88-3.8029-1.5888-0.42743-1.6063-0.47913-0.37801-1.115 0.70839-0.36673 2.6757-0.84782 4.3719-1.0691 5.9854-0.23353 20.693-9.6243 25.377-8.4025 2.9742 2.7121 7.7116-1.7255 10.902-2.1222-9.1712-20.667 45.704-14.182 44.933-19.067-0.19827-0.63684-0.0151-1.574 0.40696-2.0826 0.62522-0.75336 0.38745-1.1355-1.283-2.0621-4.9414-2.7409-5.049-3.6474-0.4514-3.8057 1.4758-0.0508 4.6395-0.31006 7.0303-0.57612 4.9598-0.55195 4.8687-0.68051 3.3117 4.6756-2.1231 7.3032 1.7407 16.606 8.0106 19.287 1.8759 0.80201 2.5782 0.79133 5.5928-0.085 5.7401-1.6687 9.3278-7.0506 9.3278-13.993 0-5.5826-1.8745-9.2999-5.7624-11.428-1.5754-0.86214-2.5048-1.6874-2.0653-1.8339 1.674-0.55802 3.9937 0.61105 6.4837 3.2677 2.1101 2.2513 3.2551 2.8965 6.2578 3.5263 2.4477 0.51341 3.9326 0.55726 4.4459 0.13129 0.52177-0.43304 1.3706-0.32671 2.6284 0.32926 2.6404 1.377 4.8049 1.2498 5.2119-0.30632 0.32209-1.2316 0.41477-1.2164 2.3106 0.37881 1.6568 1.3942 2.3453 1.5863 4.2731 1.1927 1.2639-0.25808 5.7756-0.50099 10.026-0.53981 12.649-0.1155 15.724 1.2508 10.107 4.4908-6.47 3.7322-13.335 10.545-14.977 14.863-0.82938 2.1814-0.43058 2.5006 1.9122 1.5302 2.5181-1.043 3.271-0.47144 2.8441 2.1593-0.21507 1.3253-0.0551 2.3429 0.41389 2.6328 1.5834 0.97862 6.7949-1.7887 11.077-5.882 2.714-2.5944 5.9123-4.8709 8.6939-6.1884 4-1.8945 4.9572-2.0842 10.518-2.0842 5.4982 0 6.4978 0.19248 9.8678 1.9 7.4489 3.7743 15 14.365 17.471 24.504 1.4928 6.1257 2.689 17.897 2.8388 27.935l0.0901 6.039 13.041-0.42703c82.427-2.6991 98.556-3.511 100.08-5.0381 0.6154-0.61539 1.1599-2.4272 1.2978-4.3182 0.37246-5.1087 1.9166-13.205 2.9723-15.584 0.5286-1.1914 1.3234-3.5549 1.7662-5.2521 0.44281-1.6972 1.8065-4.3973 3.0304-6.0002 2.0552-2.6916 3.1538-6.4211 4.1837-5.489 0.61335 0.55507 0.43879 4.5931 0.64273 4.5931 0.20395 0 1.2918-1.6319 2.4174-3.6264 2.5701-4.554 7.292-9.6447 10.432-11.246 3.1468-1.6054 8.212-1.6024 11.366 0.007 7.8568 4.0083 13.272 15.497 14.08 29.871 0.37172 6.6144 0.32303 7.0021-0.9953 7.9255-1.0427 0.73035-1.3871 1.6399-1.3899 3.6713-0.007 5.1068-1.8683 15.057-3.8129 20.386-2.2662 6.2096-4.7304 10.276-8.391 13.846l-2.6159 2.5514-12.069 0.24618c-7.2666 0.14822-12.738-0.0142-13.75-0.4083-1.9221-0.74832-7.0331-8.8482-8.6446-13.7-0.55576-1.6733-1.5027-3.2396-2.1044-3.4806-1.2608-0.50525-86.838-1.0677-88.472-0.58143-0.59569 0.17726-1.8638 1.6856-2.818 3.3518-0.95425 1.6662-3.0576 4.3994-4.6741 6.0737s-2.7492 3.234-2.5171 3.4661c0.72599 0.72599 34.809 3.4719 43.093 3.4717 2.7241-0.00004 5.1321 0.28972 5.351 0.64391 0.25776 0.41706-2.7358 0.652-8.4949 0.6667-4.8911 0.0125-14.979 0.28598-22.417 0.60776-7.4382 0.32178-21.348 0.91902-30.912 1.3272-17.001 0.72559-17.484 0.78378-21.682 2.6122-4.2438 1.8483-4.4241 1.8686-15.456 1.746-6.1391-0.0683-13.046-0.21184-15.348-0.31909l-0.00002-0.00042zm20.703-12.025c13.839-3.2574 22.889-19.264 19.875-35.156-1.5742-8.3009-8.2094-17.433-15.251-20.989-3.4056-1.72-4.3493-1.8959-10.193-1.9-7.8084-0.005-10.905 1.2686-16.508 6.792-9.4056 9.272-11.741 24.537-5.6712 37.075 2.0597 4.2547 8.1556 10.241 12.414 12.19 6.0026 2.7481 9.9366 3.2579 15.335 1.9874zm-4.9249-6.8517c-0.20215-0.32708 0.85308-1.2174 2.3449-1.9785 1.4919-0.76109 4.2552-2.8428 6.1407-4.6261 3.7926-3.5869 4.4238-3.3351 1.5578 0.62132-2.5733 3.5523-9.1313 7.4592-10.043 5.9832zm-18.718-5.313c-2.0244-2.3982-4.1087-6.6718-4.1295-8.4672-0.0106-0.91525 0.36186-0.67262 1.4829 0.966 1.1362 1.6607 1.9124 2.159 3.22 2.067 1.9463-0.13696 2.0191-0.0136 0.97729 1.6546-0.78627 1.259-0.5797 2.0626 1.1371 4.4235 1.7517 2.4089-0.58277 1.8496-2.6878-0.644zm31.14-25.83c-0.92116-1.8782-2.8755-4.8022-4.3429-6.4977-2.7864-3.2194-3.0483-4.2584-0.70974-2.8149 1.8317 1.1306 5.5214 6.6804 6.4806 9.7477 1.1396 3.6446 0.47339 3.4415-1.4279-0.4351zm-33.352-4.5972c0-2.2571 7.6104-8.6958 10.278-8.6958 1.6788 0 0.34959 1.7832-2.6402 3.542-1.8063 1.0626-4.0085 2.8738-4.8936 4.025-1.7333 2.2542-2.7445 2.6701-2.7445 1.1288zm207.22 38.109c2.731-1.8138 5.4696-6.1251 7.2319-11.385 1.7917-5.3475 2.475-17.561 1.2938-23.127-1.6228-7.647-6.6904-14.225-10.959-14.225-7.997 0-14.414 8.8029-15.727 21.574-0.5312 5.1679 0.71371 16.749 2.1493 19.995 1.4961 3.3822 4.9835 7.3307 7.4467 8.4314 2.4257 1.0839 5.7737 0.59007 8.5642-1.2632zm-239.91-51.968c2.5662-2.5662 2.584-2.6176 2.1587-6.2365-0.48771-4.1497-1.1465-5.1867-4.072-6.4096-4.696-1.9629-9.3477-0.006-10.929 4.5967-1.1168 3.2512-0.58963 5.6411 1.8597 8.4308 1.7221 1.9613 2.2954 2.2062 5.166 2.2062 2.911 0 3.4839-0.25489 5.8166-2.5875zm101.23 24.917c-2.6669-1.2315-5.2445-4.438-6.1962-7.7078-0.54944-1.8878-0.74645-7.7777-0.65064-19.452 0.12101-14.745-0.19814-22.794-1.4809-37.352l-0.3405-3.864 1.2752 2.6447c2.1984 4.5592 3.2634 13.187 3.4178 27.688 0.0788 7.4022 0.009 16.791-0.15565 20.864-0.28064 6.9537-0.20198 7.5829 1.288 10.304 3.033 5.5389 0.95538 5.323 44.551 4.6286 20.998-0.33447 38.296-0.50225 38.439-0.37285 0.14293 0.1294-0.72646 0.63558-1.932 1.1248-1.6759 0.68015-8.3318 0.98437-28.274 1.2923-14.345 0.22151-31.008 0.56131-37.03 0.75513-8.6375 0.27801-11.362 0.161-12.912-0.5545zm-222.36-39.636c-0.62307-0.39499-0.095-0.98904 1.9389-2.181 4.0561-2.377 5.9356-6.0415 6.0247-11.746 0.0387-2.4794 0.44173-5.2691 0.89558-6.1993 0.70482-1.4446 0.66055-1.9426-0.30348-3.4139-0.62078-0.94742-2.0275-2.2004-3.126-2.7843-1.3882-0.73789-1.6867-1.1287-0.97881-1.2814 1.15-0.24808 8.5254 3.7302 10.734 5.7902 1.6748 1.5618 1.8078 2.8692 0.55167 5.4215-0.49353 1.0028-2.015 4.2631-3.381 7.2453-3.0709 6.704-5.9216 9.7158-9.1834 9.7019-1.2739-0.005-2.7015-0.25415-3.1725-0.55273zm15.346-31.857c0-1.1264 16.712-1.6921 51.842-1.7549 26.773-0.0478 45.161-0.70686 51.143-1.8328 2.9798-0.56093 3.5989-0.50351 4.2557 0.39468 0.70662 0.96635 1.1762 0.96999 5.8244 0.0451 3.588-0.71395 5.531-0.82138 6.6922-0.37004 0.90001 0.34979 4.2356 0.61695 7.4124 0.5937 4.8265-0.0354 6.0785-0.26591 7.6159-1.4026 1.7614-1.3023 1.8933-1.312 3.0927-0.2265 1.0465 0.94708 2.4225 1.1239 8.3553 1.0735 3.9064-0.0332 7.4542-0.35217 7.884-0.70891 1.2143-1.0078 8.9762-1.2218 9.298-0.25645 0.19696 0.5909 2.7836 0.80101 9.861 0.80101h9.594l0.40511-1.6141c0.2228-0.88773 0.61484-3.1337 0.87118-4.991l0.46608-3.3769 0.80454 1.932c0.44249 1.0626 0.82709 3.2109 0.85466 4.7741 0.0402 2.2789-0.27311 3.1202-1.5811 4.2452-1.6056 1.381-2.0903 1.4104-30.825 1.8654-16.057 0.25424-32.105 0.72496-35.663 1.046-3.5582 0.32108-31.609 0.59354-62.336 0.60547-46.302 0.018-55.867-0.12619-55.867-0.84209v-0.00002zm284.48-2.0806c-0.97405-0.52843-1.771-1.2413-1.771-1.5842 0-0.69451 2.7619-0.81489 4.991-0.21753 1.6729 0.44831 1.9219 1.8508 0.43033 2.4232-1.3738 0.52718-1.6059 0.48768-3.6503-0.62145zm-90.309-1.0806c-2.4584-10.639-2.5365-11.428-1.0401-10.503 0.77781 0.48071 3.2824 8.5482 3.2824 10.573 0 1.8423-1.8135 1.7862-2.2422-0.0694v-0.00003zm80.104-1.5233c-0.74694-0.90001-0.69964-1.0085 0.35078-0.80499 0.66777 0.1294 1.3347 0.59752 1.4822 1.0403 0.38251 1.1488-0.81142 0.99557-1.8329-0.23528zm55.527-12.162c-6.4547-14.759-7.3671-16.545-7.9333-15.534-0.34035 0.60817-0.0161 2.7843 0.85712 5.7523 0.77251 2.6258 1.2038 5.2972 0.95852 5.9364-0.66335 1.7287-1.3171 0.59921-3.1796-5.493-1.824-5.9666-6.4881-15.592-10.475-21.616-3.4454-5.2068-10.751-12.79-15.296-15.877-2.0639-1.402-3.6215-2.6802-3.4614-2.8404 0.50769-0.50769 5.8011 1.8265 9.2443 4.0764 3.2367 2.115 5.3437 4.2227 11.079 11.083 1.5432 1.8458 2.9627 3.1991 3.1545 3.0074 0.19176-0.19176-1.0709-2.7044-2.8058-5.5837-3.5016-5.811-8.5122-10.839-14.314-14.363-4.2044-2.554-14.928-6.3041-21.415-7.4884-2.2735-0.41514-5.8724-1.1453-7.9976-1.6226-8.1041-1.8201-23.209-2.996-35.572-2.7694l-12.084 0.22146-3.703 2.031c-2.4946 1.3683-3.703 1.7513-3.703 1.1739 0-1.6728 4.5292-4.6414 8.2087-5.3803 11.404-2.2902 42.373 1.5293 64.885 8.0023 12.321 3.5427 21.001 9.2593 26.392 17.381 5.0721 7.6414 20.571 42.164 20.176 44.941-0.13442 0.94406-1.1205-0.70284-3.0162-5.0373zm-140.21-5.7257c-0.39584-1.0315 5.2478-18.87 8.8583-27.998 1.8182-4.5974 4.896-10.74 4.076-8.1356-0.223 0.70839-2.7183 8.2431-5.5452 16.744-2.8268 8.5007-5.1688 16.254-5.2044 17.229-0.0805 2.2065-1.5931 3.7024-2.1847 2.1607zm-130.35-5.8662c0.81533-1.4168 2.062-3.1556 2.7704-3.864 1.1353-1.1353 1.1123-0.98266-0.19443 1.288-0.81533 1.4168-2.062 3.1556-2.7704 3.864-1.1353 1.1353-1.1123 0.98266 0.19442-1.288zm119.89 1.0593c-0.6883-0.44717-0.64819-0.63895 0.20182-0.96513 2.4868-0.95429-0.14635-1.7041-5.9818-1.7033-3.4325 0.00045-8.6231-0.33205-11.535-0.73889-3.979-0.556-5.5145-0.55641-6.1829-0.002-1.5835 1.3142-6.3631 1.5346-10.356 0.47756-2.0902-0.55337-3.9375-1.1431-4.1049-1.3106-0.16746-0.16745-0.81487 0.32586-1.4387 1.0962-0.98139 1.212-1.2776 1.2818-2.1978 0.51803-0.58497-0.48549-0.98044-1.4904-0.87881-2.2331 0.20968-1.5324 0.84558-1.4108-11.729-2.2428l-8.0499-0.5326 11.592-0.10236c6.7977-0.06 11.229-0.3324 10.714-0.65855-0.7381-0.46763-0.73869-0.60257-0.004-0.84757 1.2198-0.40661 5.0456 0.78633 7.1616 2.2331 2.2972 1.5706 4.602 1.2639 4.8736-0.64864 0.24578-1.7306 0.75976-1.7683 5.3123-0.38984 3.8294 1.1595 18.954 1.6047 23.286 0.68541 1.3201-0.28017 3.6957-1.4983 5.2791-2.7069 2.6687-2.0371 2.9078-2.1064 3.275-0.94941 0.36099 1.1374-2.1097 5.3293-3.4767 5.8989-0.26242 0.10934-0.93143 1.358-1.4867 2.7748-1.0187 2.5994-2.5725 3.4527-4.2739 2.3473l0.00032 0.00034zm-3.052-1.0455c-1.0896-0.8243-1.1081-0.94136-0.152-0.95934 0.59895-0.0113 1.28 0.2886 1.5135 0.66636 0.70153 1.1351-0.038 1.2942-1.3615 0.29298zm-111.36-0.33583c-0.22573-0.36525 0.31531-0.64399 1.25-0.64399 0.9064 0 1.648 0.28979 1.648 0.64399s-0.56249 0.644-1.25 0.644c-0.68749 0-1.4291-0.2898-1.648-0.644zm25.683-1.5792c-0.44861-1.1691 0.20299-2.2848 1.3344-2.2848 1.2042 0 1.8584 2.0407 0.8577 2.6756-1.2074 0.76609-1.7878 0.66259-2.1921-0.39081zm7.8431-1.3393c-0.68754-0.52003-1.9192-0.94551-2.737-0.94551-0.81779 0-1.4869-0.25879-1.4869-0.57509 0-0.69591 2.0009-1.6385 2.898-1.3652 0.3542 0.10791 2.8175 0.13549 5.474 0.0613 4.4554-0.12447 4.7301-0.0584 3.542 0.85155-0.70839 0.54255-1.0352 0.99568-0.72614 1.007 0.30902 0.0113 0.20108 0.45517-0.23985 0.98647-1.0228 1.2324-5.0839 1.2201-6.724-0.0205zm-32.13-0.0869c-1.1194-1.1194-0.11997-2.3044 3.2736-3.8818 2.0366-0.94664 5.0624-2.3556 6.7238-3.131 1.8271-0.85267 3.7039-1.2792 4.7493-1.0794 1.5961 0.30512 1.4634 0.4448-1.7328 1.8241-1.9037 0.82153-3.8161 1.5053-4.2498 1.5196-0.43365 0.0142-1.2445 0.9077-1.8018 1.9855-1.2885 2.4917-5.5446 4.1807-6.9623 2.763zm208.52-3.0834c-0.24634-1.6427-0.30299-3.1316-0.12589-3.3087s0.52355 1.022 0.76989 2.6647c0.24633 1.6427 0.30299 3.1316 0.12589 3.3088-0.1771 0.1771-0.52355-1.022-0.76989-2.6648zm-208.95-2.6863c0-0.76426 5.9426-9.1753 6.6834-9.4596 0.46924-0.18006 3.7218-4.5896 7.2278-9.7989 6.4698-9.6128 9.0796-12.946 9.6726-12.353 0.18073 0.18075-1.5553 2.7692-3.8578 5.7522-2.3026 2.983-6.7103 9.4602-9.795 14.394-3.0847 4.9337-6.0202 9.4486-6.5234 10.033-0.8521 0.98983-3.4075 2.0638-3.4075 1.4321zm16.166-12.477c1.2891-2.6686 12.145-18.199 14.324-20.492 1.9252-2.0258 1.9698-2.1837 0.85063-3.0086-1.1258-0.82977-1.1079-0.91864 0.38183-1.8947 1.5196-0.9957 11.542-4.1879 13.234-4.215 1.3225-0.0212 0.16873 1.3095-2.0486 2.3627-5.6067 2.6632-6.2744 3.4197-3.0184 3.4197 1.0417 0 2.0753 0.29337 2.2969 0.65193 0.5916 0.95724-5.1425 6.432-6.7367 6.432-4.0001 0-9.5643 4.2844-14.218 10.948-1.3606 1.9481-3.232 4.4114-4.1589 5.474-1.512 1.7335-1.6052 1.7666-0.90738 0.322zm189.96-1.0197c0.0309-0.75022 0.1835-0.90282 0.38908-0.38908 0.18603 0.46488 0.16315 1.0203-0.0508 1.2343-0.21399 0.214-0.3662-0.16636-0.33823-0.84524h-0.00005zm-0.59316-3.4883c0-0.88549 0.14618-1.2477 0.32483-0.80499 0.17865 0.44275 0.17865 1.1672 0 1.61-0.17865 0.44274-0.32483 0.0805-0.32483-0.805zm-0.64399-3.22c0-0.88549 0.14617-1.2477 0.32482-0.805 0.17865 0.44275 0.17865 1.1672 0 1.61-0.17865 0.44275-0.32482 0.0805-0.32482-0.80499zm-1.0336-4.1407c-0.32972-1.5371-1.5498-3.6231-3.1075-5.313-2.6004-2.8211-2.5823-3.611 0.0407-1.7737 1.9731 1.382 4.1247 5.8033 3.8422 7.8953-0.20627 1.5273-0.29397 1.4358-0.77542-0.80862h0.00002zm-69.449-14.678c-0.55959-2.0693-2.7356-3.4834-3.8882-2.5269-0.51902 0.43076-2.7386 0.24539-6.7876-0.56687-6.9732-1.3989-19.571-2.9886-28.584-3.607-3.4534-0.23697-6.279-0.64409-6.279-0.90471 0-0.9127 3.6369-1.1601 15.134-1.0296 6.3756 0.0724 10.723-0.0863 9.6599-0.35256-2.7252-0.68295 8.198 0.0117 12.915 0.82124 4.46 0.7655 8.3777 2.7672 9.8746 5.0452l1.0293 1.5664-1.8624-1.2203-1.8624-1.2203 0.78037 1.4581c0.42921 0.80198 0.68221 2.0952 0.56224 2.8739-0.19938 1.294-0.25889 1.2651-0.69204-0.33663zm-15.097-8.008c-0.43601-0.1764-1.3054-0.18713-1.932-0.0239-0.62658 0.16328-0.26985 0.30761 0.79274 0.32074 1.0626 0.0131 1.5752-0.12047 1.1392-0.29688v0.00004zm-66.505-3.1289c15.675-4.076 43.032-6.1774 64.343-4.9425 13.218 0.76596 21.016 1.7298 22.315 2.758 0.37658 0.29807 1.792 0.36225 3.1454 0.14262 1.942-0.31515 2.3976-0.20892 2.1616 0.50397-0.16448 0.4968-1.0623 1.3336-1.9952 1.8596-1.5288 0.86199-2.4131 0.81471-8.9643-0.47925-12.882-2.5443-16.018-2.8198-32.062-2.8168-17.421 0.003-29.509 0.76333-42.182 2.6522-4.6046 0.68632-9.3862 1.3975-10.626 1.5805-1.2397 0.18294 0.4991-0.38327 3.864-1.2582zm55.23 1.1638c0.80107-0.15404 1.9603-0.14819 2.576 0.013 0.61572 0.16118-0.0397 0.28722-1.4565 0.28007-1.4168-0.007-1.9206-0.13903-1.1195-0.29307z" fill="url(#linearGradient9873)"/>
  </g>
  <g id="layer3" transform="translate(114.44 397.37)" fill="#001046">
    <path id="path9034-0" d="m192.24-35.473c-112.57-6.978-194.37-8.2147-34.454-8.112 14.104-0.15993 13.511 0.24768 9.3537-6.4301-1.3739-2.2069-3.2756-5.9717-4.226-8.3662l-1.728-4.3536-28.417 0.16765-28.417 0.16764-2.6623 4.0694c-1.4643 2.2382-3.6259 5.0636-4.8038 6.2788-2.1132 2.1802-3.239 3.0089-10.317 7.5931l-3.5979 2.3303-17.865 0.14679-15.546-0.69647-5.3392-2.8767c-7.265-4.292-14.774-14.17-17.751-23.353-1.5698-2.0456-3.0377-18.495-0.30619-16.609 0.66754 0.60413 1.2137 1.6264 1.2137 2.2717 0 1.6848 2.2138 2.8543 7.7279 4.0826 22.996 5.1225 59.48 7.5358 92.305 6.1056 16.208-0.70623 25.922-1.8582 32.952-3.9079 14.6-4.2565 17.282-6.7062 24.384-22.273 4.9029-10.746 7.9744-15.479 13.076-20.149 11.086-10.149 23.536-9.8829 33.345 0.71161 4.0489 4.3733 8.147 11.929 9.597 17.694 1.4699 5.8441 3.6303 24.479 3.4648 29.887l-0.1478 4.83 4.83 0.0488c2.6565 0.0269 14.248-0.31182 25.76-0.75257 11.511-0.44073 31.942-1.112 45.402-1.4918 33.332-0.94036 35.478-1.1049 38.685-2.9648 4.603-2.6697 6.6638-6.6376 10.865-20.922 4.2147-14.328 9.6511-23.264 16.033-26.353 3.3846-1.6385 5.7535-1.6724 9.1204-0.13078 3.032 1.3883 8.0217 6.5419 9.9017 10.227 3.398 6.6607 5.4291 19.66 4.0785 26.103-0.38696 1.8459-1.0289 6.544-1.4265 10.44-1.2405 12.156-5.6081 22.723-11.836 28.633l-2.3491 2.2295-1.9277 0.24609c-7.2633 0.14815-22.87-0.0144-23.882-0.4084-1.9221-0.74833-7.0331-8.8482-8.6446-13.7-0.55576-1.6733-1.5027-3.2396-2.1044-3.4807-1.2608-0.50524-86.838-1.0676-88.472-0.58143-0.59569 0.17727-1.8638 1.6856-2.818 3.3518-0.95425 1.6662-3.0576 4.3994-4.6741 6.0736-1.6165 1.6743-2.7492 3.234-2.5171 3.4662 0.72599 0.72599 69.095 0.49048 77.379 0.49034 2.7241-0.00004 80.065-1.4505 52.159 5.116-46.308 3.4116-98-0.32186-142.92 1.1109-17.001 0.72559-17.484 0.78377-21.682 2.6122-4.2438 1.8483-4.4241 1.8686-15.456 1.746-6.1391-0.0683-13.046-0.21185-15.348-0.3191v0.00002zm20.703-12.025c13.839-3.2574 22.889-19.264 19.875-35.156-1.5742-8.3009-8.2094-17.433-15.251-20.989-3.4056-1.72-4.3493-1.8959-10.193-1.9-7.8084-0.005-10.905 1.2686-16.508 6.792-9.4056 9.272-11.741 24.537-5.6712 37.075 2.0597 4.2547 8.1556 10.241 12.414 12.19 6.0026 2.7481 9.9366 3.2579 15.335 1.9874zm-4.9249-6.8517c-0.20215-0.32708 0.85308-1.2174 2.3449-1.9785 1.4919-0.76109 4.2552-2.8428 6.1407-4.6261 3.7926-3.5869 4.4238-3.3351 1.5578 0.62132-2.5733 3.5523-9.1313 7.4592-10.043 5.9832zm-18.718-5.313c-2.0244-2.3982-4.1087-6.6718-4.1295-8.4672-0.0106-0.91525 0.36186-0.67262 1.4829 0.966 1.1362 1.6607 1.9124 2.159 3.22 2.067 1.9463-0.13696 2.0191-0.0136 0.97729 1.6546-0.78627 1.259-0.5797 2.0626 1.1371 4.4235 1.7517 2.4089-0.58277 1.8496-2.6878-0.644zm31.14-25.83c-0.92116-1.8782-2.8755-4.8022-4.3429-6.4977-2.7864-3.2194-3.0483-4.2584-0.70974-2.8149 1.8317 1.1306 5.5214 6.6804 6.4806 9.7477 1.1396 3.6446 0.47339 3.4415-1.4279-0.4351zm-33.352-4.5972c0-2.2571 7.6104-8.6958 10.278-8.6958 1.6788 0 0.34959 1.7832-2.6402 3.542-1.8063 1.0626-4.0085 2.8738-4.8936 4.025-1.7333 2.2542-2.7445 2.6701-2.7445 1.1288zm207.22 38.109c2.731-1.8138 5.4696-6.1251 7.2319-11.385 1.7917-5.3475 2.475-17.561 1.2938-23.127-1.6228-7.647-6.6904-14.225-10.959-14.225-7.997 0-14.414 8.8029-15.727 21.574-0.5312 5.1679 0.71371 16.749 2.1493 19.995 1.4961 3.3822 4.9835 7.3307 7.4467 8.4314 2.4257 1.0839 5.7737 0.59007 8.5642-1.2632zm-354.86-72.081c2.6253-3.9268 3.3656-5.9144 3.8192-10.254 0.49616-4.747 1.4729-3.7088 1.487 1.5804 0.0121 4.5635-1.1015 7.3852-3.816 9.6693-3.0028 2.5267-3.5851 2.1375-1.4902-0.99606zm331.54-46.904c-0.1793-0.50198-1.0527-3.2463-1.941-6.0986-1.7902-5.7486-6.5012-15.396-10.382-21.261-3.4454-5.2068-10.751-12.79-15.296-15.877-2.0639-1.402-3.5997-2.7021-3.4127-2.889 0.18693-0.18692 2.195 0.52828 4.4625 1.5893 5.4263 2.5393 12.334 9.1027 16.65 15.82 5.7588 8.9631 12.695 27.178 10.997 28.877-0.57314 0.57313-0.82934 0.5349-1.0778-0.16083zm-173.3-10.3c-0.23567-0.38132 0.18192-1.262 0.92799-1.9571 0.74606-0.69507 1.3565-1.8321 1.3565-2.5267 0-1.537 0.70204-1.5645 5.1961-0.20375 3.8294 1.1595 18.954 1.6047 23.286 0.68541 1.3201-0.28017 3.711-1.5099 5.313-2.7327 2.1624-1.6506 2.9127-1.9592 2.9127-1.1979 0 1.7718-3.8605 4.7251-7.5961 5.8111-3.6496 1.061-5.1504 1.0508-21.726-0.14723l-5.8165-0.42039-0.77061 1.6913c-0.79063 1.7352-2.3209 2.2306-3.0827 0.99798zm-82.938-1.024c-1.1194-1.1194-0.11997-2.3044 3.2736-3.8818 2.0366-0.94664 5.0624-2.3556 6.7238-3.131 1.8271-0.85267 3.7039-1.2792 4.7493-1.0794 1.5961 0.30512 1.4634 0.4448-1.7328 1.8241-1.9037 0.82153-3.8161 1.5053-4.2498 1.5196-0.43365 0.0142-1.2445 0.9077-1.8018 1.9855-1.2885 2.4917-5.5446 4.1807-6.9623 2.763zm34.346-0.36307c0-0.48509 0.34776-1.2297 0.7728-1.6548 1.2852-1.2852 2.5571-0.91628 2.331 0.6762-0.22984 1.6184-3.1038 2.5245-3.1038 0.97858zm174.17-2.7203c-0.24634-1.6427-0.30299-3.1316-0.12589-3.3087s0.52355 1.022 0.76989 2.6647c0.24633 1.6427 0.30299 3.1316 0.12589 3.3088-0.1771 0.1771-0.52355-1.022-0.76989-2.6648zm-134.82-0.60992c-1.1086-0.61433-1.2909-0.94757-0.64399-1.1768 0.85746-0.30385 4.4445 1.1279 4.4445 1.774 0 0.60234-2.2834 0.24354-3.8005-0.59719zm-70.709-5.6983c4.6602-7.2771 16.632-24.642 18.211-26.413 3.3978-3.8135 2.1503-1.069-1.8982 4.1758-2.3026 2.983-6.7103 9.4602-9.795 14.394-5.8915 9.4229-7.1944 11.224-8.1185 11.224-0.31018 0 0.41034-1.5214 1.6012-3.381zm37.037-0.27892c0.46488-0.18603 1.0203-0.16316 1.2343 0.0508 0.214 0.21399-0.16637 0.3662-0.84524 0.33824-0.75022-0.0309-0.90282-0.1835-0.38908-0.38908v0.00004zm3.8312-0.65955c0.80107-0.15404 1.9603-0.14819 2.576 0.013 0.61571 0.16118-0.0397 0.28722-1.4565 0.28007-1.4168-0.007-1.9206-0.13903-1.1195-0.29307zm4.8935-0.0429c0.62669-1.014 6.8948-1.64 8.7839-0.8773 1.4022 0.56618 1.1841 0.65532-1.6905 0.69087-1.8153 0.0225-4.2512 0.23096-5.4131 0.46335-1.446 0.2892-1.9762 0.20182-1.6803-0.27692zm-33.01-7.8735c1.2891-2.6686 12.145-18.199 14.324-20.492 1.9252-2.0258 1.9698-2.1837 0.85063-3.0086-1.1258-0.82977-1.1079-0.91864 0.38183-1.8947 1.5196-0.9957 11.542-4.1879 13.234-4.215 1.3225-0.0212 0.16873 1.3095-2.0486 2.3627-5.6067 2.6632-6.2744 3.4197-3.0184 3.4197 1.0417 0 2.0753 0.29337 2.2969 0.65193 0.5916 0.95724-5.1425 6.432-6.7367 6.432-4.0001 0-9.5643 4.2844-14.218 10.948-1.3606 1.9481-3.232 4.4114-4.1589 5.474-1.512 1.7335-1.6052 1.7666-0.90738 0.322zm189.96-1.0197c0.0309-0.75022 0.1835-0.90282 0.38908-0.38908 0.18603 0.46488 0.16315 1.0203-0.0508 1.2343-0.21399 0.214-0.3662-0.16636-0.33823-0.84524h-0.00005zm-0.59316-3.4883c0-0.88549 0.14618-1.2477 0.32483-0.80499 0.17865 0.44275 0.17865 1.1672 0 1.61-0.17865 0.44274-0.32483 0.0805-0.32483-0.805zm-0.64399-3.22c0-0.88549 0.14617-1.2477 0.32482-0.805 0.17865 0.44275 0.17865 1.1672 0 1.61-0.17865 0.44275-0.32482 0.0805-0.32482-0.80499zm-75.429-1.1473c-0.0234-0.94175 2.3061-8.0484 3.1737-9.6824 0.31665-0.59632 0.74861-1.6328 0.9599-2.3034 0.21129-0.67054 0.56623-1.0371 0.78874-0.81459 0.51211 0.51211-2.8423 10.91-4.0213 12.464-0.551 0.72664-0.8883 0.85243-0.90112 0.33604zm74.395-2.9934c-0.32972-1.5371-1.5498-3.6231-3.1075-5.313-2.6004-2.8211-2.5823-3.611 0.0407-1.7737 1.9731 1.382 4.1247 5.8033 3.8422 7.8953-0.20627 1.5273-0.29397 1.4358-0.77542-0.80862h0.00002zm-69.449-14.678c-0.55959-2.0693-2.7356-3.4834-3.8882-2.5269-0.43768 1.6734-12.055-2.7217-33.001-3.847-11.069-0.59469-32.93 0.53723-34.64 0.32791-4.4649-0.5465 9.3618-2.1648 22.147-2.7825 12.785-0.61773 30.22-0.38958 44.858 3.2753 3.7379 1.3985 5.5868 3.4576 5.2255 5.8194-0.21752 1.4218-0.2479 1.4103-0.70127-0.26618zm-81.602-11.137c15.675-4.076 43.032-6.1774 64.343-4.9425 13.218 0.76596 21.016 1.7298 22.315 2.758 0.37658 0.29807 1.7982 0.36125 3.1591 0.1404 3.0435-0.4939 2.659 0.64804-0.57796 1.7163-1.7099 0.56432-3.0141 0.51439-5.948-0.22771-6.6406-1.6797-18.181-2.5276-34.026-2.4997-17.132 0.0301-29.888 0.85004-42.504 2.732-4.6046 0.68688-9.3862 1.3986-10.626 1.5815-1.2397 0.18294 0.4991-0.38327 3.864-1.2582z"/>
    <path id="path10877" d="m147.71-122.82c2.6253-3.9268 3.3656-5.9144 3.8192-10.254 0.49616-4.747 1.4729-3.7088 1.487 1.5804 0.0121 4.5635-1.1015 7.3852-3.816 9.6693-3.0028 2.5267-3.5851 2.1375-1.4902-0.99606z"/>
  </g>
  <metadata>
    <rdf:RDF>
      <cc:Work>
        <dc:format>image/svg+xml</dc:format>
        <dc:type rdf:resource="http://purl.org/dc/dcmitype/StillImage"/>
        <cc:license rdf:resource="http://creativecommons.org/licenses/publicdomain/"/>
        <dc:publisher>
          <cc:Agent rdf:about="http://openclipart.org/">
            <dc:title>Openclipart</dc:title>
          </cc:Agent>
        </dc:publisher>
        <dc:title>Fiat 500</dc:title>
        <dc:date>2011-09-20T09:57:48</dc:date>
        <dc:description>Old Fiat 500</dc:description>
        <dc:source>http://openclipart.org/detail/161497/fiat-500-by-purator</dc:source>
        <dc:creator>
          <cc:Agent>
            <dc:title>Purator</dc:title>
          </cc:Agent>
        </dc:creator>
        <dc:subject>
          <rdf:Bag>
            <rdf:li>500</rdf:li>
            <rdf:li>automobil</rdf:li>
            <rdf:li>car</rdf:li>
            <rdf:li>clip art</rdf:li>
            <rdf:li>clipart</rdf:li>
            <rdf:li>fiat</rdf:li>
            <rdf:li>italian</rdf:li>
            <rdf:li>oldtimer</rdf:li>
            <rdf:li>vehicle</rdf:li>
          </rdf:Bag>
        </dc:subject>
      </cc:Work>
      <cc:License rdf:about="http://creativecommons.org/licenses/publicdomain/">
        <cc:permits rdf:resource="http://creativecommons.org/ns#Reproduction"/>
        <cc:permits rdf:resource="http://creativecommons.org/ns#Distribution"/>
        <cc:permits rdf:resource="http://creativecommons.org/ns#DerivativeWorks"/>
      </cc:License>
    </rdf:RDF>
  </metadata>
</svg>
